<?xml version="1.0" encoding="utf-8"?>
<!-- Generator: Adobe Illustrator 16.0.0, SVG Export Plug-In . SVG Version: 6.00 Build 0)  -->
<!DOCTYPE svg PUBLIC "-//W3C//DTD SVG 1.1//EN" "http://www.w3.org/Graphics/SVG/1.1/DTD/svg11.dtd">
<svg version="1.1" id="Layer_1" xmlns="http://www.w3.org/2000/svg" xmlns:xlink="http://www.w3.org/1999/xlink" x="0px" y="0px"
	 width="695.667px" height="254.834px" viewBox="-112.167 -54.834 695.667 254.834"
	 enable-background="new -112.167 -54.834 695.667 254.834" xml:space="preserve">
<g>
	<g>
		<g>
			<path fill="#E0393F" d="M527.388,16.046h0.115l0.34,0.004l0.115,0.003l0.112,0l0.34,0.007l0.227,0.007l0.112,0.002l0.112,0.004
				l0.115,0.004l0.109,0.003l0.115,0.006l0.113,0.004l0.111,0.003l0.111,0.005l0.112,0.005l0.228,0.012l0.113,0.006l0.115,0.005
				l0.224,0.013l0.115,0.007l0.115,0.006l0.109,0.008l0.115,0.007l0.112,0.008l0.112,0.008l0.115,0.009l0.111,0.008l0.112,0.009
				l0.112,0.01l0.113,0.008l0.115,0.01l0.109,0.01l0.115,0.01l0.336,0.031l0.225,0.022l0.228,0.023l0.111,0.013l0.113,0.011
				l0.111,0.013l0.113,0.012l0.111,0.013l0.114,0.013l0.226,0.027l0.112,0.013l0.112,0.014l0.112,0.015l0.336,0.043l0.113,0.017
				l0.111,0.015l0.112,0.016l0.11,0.016l0.111,0.015l0.112,0.018l0.111,0.018l0.113,0.016l0.112,0.018l0.109,0.017l0.114,0.019
				l0.113,0.017l0.111,0.018l0.109,0.02l0.113,0.018l0.111,0.019l0.225,0.039l0.222,0.038l0.111,0.021l0.223,0.041l0.111,0.02
				l0.112,0.022l0.11,0.021l0.225,0.042l0.108,0.021l0.109,0.021l0.334,0.069l0.111,0.024l0.109,0.022l0.223,0.048l0.111,0.025
				l0.112,0.023l0.109,0.025l0.221,0.05l0.109,0.026l0.11,0.025l0.112,0.024l0.219,0.052l0.109,0.027l0.11,0.027l0.438,0.109
				l0.113,0.028l0.108,0.028l0.11,0.029l0.218,0.057l0.112,0.03l0.106,0.029l0.222,0.06l0.105,0.031l0.11,0.029l0.109,0.03
				l0.108,0.03l0.109,0.032l0.109,0.031l0.436,0.126l0.108,0.033l0.109,0.032l0.105,0.033l0.109,0.033l0.107,0.033l0.108,0.034
				l0.106,0.034l0.108,0.034l0.11,0.034l0.106,0.035l0.109,0.035l0.105,0.035l0.109,0.035l0.106,0.035l0.109,0.037l0.105,0.035
				l0.215,0.073l0.108,0.037l0.106,0.036l0.108,0.038l0.104,0.037l0.107,0.037l0.105,0.039l0.109,0.037l0.106,0.04l0.106,0.037
				l0.212,0.078l0.319,0.118l0.104,0.04l0.109,0.04l0.105,0.04l0.104,0.04l0.106,0.041l0.106,0.041l0.106,0.041l0.104,0.041
				l0.423,0.168l0.103,0.041l0.106,0.044l0.21,0.086l0.104,0.043l0.104,0.042l0.419,0.177l0.104,0.045l0.104,0.043l0.106,0.046
				l0.1,0.046l0.107,0.045l0.103,0.045l0.104,0.047l0.104,0.044l0.104,0.046l0.103,0.049l0.104,0.046l0.1,0.047l0.104,0.046
				l0.104,0.047l0.103,0.05l0.104,0.047l0.1,0.047l0.102,0.048l0.105,0.049l0.2,0.098l0.308,0.149l0.1,0.05l0.102,0.05l0.104,0.05
				l0.101,0.052l0.104,0.051l0.3,0.152l0.302,0.157l0.102,0.052l0.1,0.053l0.102,0.052l0.2,0.106l0.1,0.053l0.098,0.053l0.101,0.055
				l0.1,0.053l0.098,0.054l0.101,0.056l0.101,0.054l0.098,0.055l0.197,0.111l0.101,0.056l0.098,0.055l0.098,0.057l0.1,0.055
				l0.196,0.114l0.098,0.056l0.1,0.058l0.095,0.058l0.292,0.173l0.098,0.058l0.097,0.058l0.098,0.06l0.098,0.059l0.096,0.058
				l0.194,0.118l0.384,0.24l0.095,0.061l0.098,0.06l0.093,0.061l0.099,0.061l0.283,0.184l0.095,0.062l0.098,0.063l0.094,0.061
				l0.093,0.064l0.189,0.125l0.094,0.062l0.095,0.063l0.187,0.125L557,25.252l0.093,0.063l0.095,0.065l0.371,0.258l0.187,0.131
				l0.092,0.065l0.092,0.065l0.091,0.066l0.096,0.065l0.091,0.067l0.092,0.067l0.092,0.065l0.088,0.067l0.092,0.068l0.184,0.135
				l0.271,0.203l0.088,0.069l0.092,0.068l0.092,0.068l0.091,0.068l0.089,0.069l0.09,0.071l0.179,0.137l0.089,0.07l0.088,0.07
				l0.09,0.07l0.177,0.141l0.089,0.072l0.089,0.069l0.174,0.143l0.178,0.145l0.086,0.071l0.087,0.072l0.176,0.146l0.085,0.073
				l0.089,0.071l0.086,0.074l0.088,0.072l0.343,0.295l0.086,0.075l0.085,0.073l0.423,0.374l0.086,0.076l0.085,0.075l0.086,0.075
				l0.169,0.152l0.081,0.078l0.084,0.077l0.083,0.076l0.082,0.078l0.334,0.309l0.079,0.078l0.083,0.076l0.083,0.079l0.082,0.078
				l0.08,0.08l0.166,0.156l0.082,0.079l0.08,0.081l0.08,0.08l0.242,0.237l0.08,0.08l0.079,0.08l0.079,0.08l0.08,0.08l0.079,0.082
				l0.08,0.081l0.081,0.081l0.079,0.082l0.076,0.079l0.08,0.082l0.156,0.164l0.077,0.083l0.079,0.082l0.078,0.082l0.079,0.082
				l0.153,0.166l0.077,0.083l0.153,0.165l0.077,0.084l0.077,0.084l0.076,0.083l0.229,0.251l0.072,0.084l0.077,0.084l0.074,0.085
				L566.903,34l0.15,0.17l0.074,0.084l0.073,0.086l0.075,0.085l0.073,0.086l0.147,0.171l0.073,0.087l0.072,0.085l0.076,0.087
				l0.07,0.085l0.289,0.35l0.074,0.087l0.071,0.088l0.067,0.087l0.074,0.088l0.071,0.088l0.071,0.087l0.07,0.088l0.071,0.088
				l0.07,0.09l0.07,0.088l0.069,0.089l0.07,0.089l0.067,0.089l0.139,0.179l0.068,0.091l0.142,0.178l0.065,0.09l0.07,0.09
				l0.204,0.272l0.065,0.091l0.07,0.091l0.065,0.092l0.067,0.09l0.133,0.184l0.065,0.092l0.067,0.092l0.065,0.091l0.064,0.093
				l0.065,0.092l0.067,0.093l0.063,0.092l0.067,0.093l0.13,0.186l0.065,0.094l0.062,0.093l0.065,0.094l0.061,0.092l0.065,0.094
				l0.064,0.094l0.063,0.094l0.062,0.094l0.062,0.093l0.065,0.094l0.062,0.094l0.062,0.095l0.062,0.097l0.062,0.092l0.059,0.096
				l0.065,0.094l0.06,0.096l0.062,0.096l0.121,0.191l0.238,0.384l0.061,0.098l0.059,0.095l0.062,0.096l0.056,0.098l0.122,0.193
				l0.115,0.194l0.056,0.098l0.06,0.097l0.115,0.194l0.056,0.098l0.057,0.099l0.056,0.097l0.115,0.197l0.056,0.099l0.057,0.098
				l0.109,0.197l0.057,0.098l0.055,0.1l0.054,0.099l0.057,0.1l0.053,0.1l0.054,0.099l0.057,0.1l0.262,0.498l0.054,0.101l0.053,0.1
				l0.053,0.102l0.051,0.1l0.104,0.202l0.153,0.302l0.05,0.103l0.051,0.101l0.05,0.101l0.201,0.408l0.194,0.407l0.048,0.104
				l0.048,0.102l0.05,0.104l0.044,0.101l0.097,0.207l0.188,0.412l0.043,0.104l0.048,0.103l0.044,0.104l0.048,0.103l0.045,0.104
				l0.044,0.104l0.047,0.104l0.045,0.104l0.044,0.104l0.041,0.104l0.092,0.209l0.041,0.104l0.044,0.106l0.041,0.104l0.043,0.104
				l0.041,0.105l0.167,0.421l0.042,0.105l0.045,0.105l0.038,0.104l0.042,0.107l0.04,0.106l0.039,0.106l0.042,0.105l0.04,0.107
				l0.039,0.106l0.038,0.105l0.038,0.108l0.042,0.105l0.038,0.106l0.077,0.213l0.073,0.212l0.035,0.108l0.077,0.213l0.036,0.107
				l0.038,0.106l0.071,0.216l0.035,0.107l0.034,0.108l0.144,0.43l0.035,0.108l0.032,0.107l0.035,0.11l0.032,0.108l0.035,0.107
				l0.03,0.108l0.035,0.108l0.032,0.107l0.032,0.109l0.033,0.107l0.128,0.435l0.029,0.108l0.031,0.109l0.062,0.217l0.03,0.109
				l0.03,0.109l0.029,0.11l0.032,0.11l0.029,0.108l0.026,0.11l0.03,0.11l0.085,0.33l0.027,0.108l0.082,0.33l0.027,0.108l0.026,0.109
				l0.027,0.111l0.079,0.331l0.024,0.111l0.025,0.11l0.024,0.11l0.025,0.11l0.024,0.111l0.048,0.221l0.025,0.11L579,57.998
				l0.023,0.112l0.021,0.111l0.048,0.222l0.023,0.11l0.021,0.11l0.022,0.112l0.062,0.332l0.041,0.222l0.023,0.112l0.021,0.111
				l0.018,0.111l0.021,0.111l0.019,0.113l0.02,0.11l0.039,0.225l0.018,0.111l0.019,0.112l0.021,0.112l0.014,0.111l0.021,0.113
				l0.018,0.113l0.018,0.112l0.015,0.11l0.016,0.112l0.02,0.111l0.03,0.225l0.015,0.111l0.018,0.112l0.016,0.112l0.014,0.112
				l0.03,0.225l0.014,0.112l0.015,0.113l0.027,0.225l0.016,0.113l0.011,0.113l0.012,0.113l0.015,0.112l0.024,0.227l0.011,0.111
				l0.013,0.114l0.012,0.113l0.012,0.111l0.009,0.112l0.012,0.113l0.008,0.111l0.013,0.113l0.009,0.111l0.012,0.113l0.009,0.113
				l0.009,0.112l0.01,0.113l0.009,0.112l0.009,0.114l0.009,0.113l0.015,0.226l0.009,0.112l0.005,0.114l0.01,0.113l0.006,0.114
				l0.006,0.113l0.007,0.114l0.008,0.114l0.018,0.339l0.004,0.111l0.006,0.113l0.006,0.113l0.002,0.112l0.007,0.112v0.114
				l0.005,0.112l0.007,0.113v0.112l0.004,0.114l0.005,0.114l0.005,0.453l0.004,0.114v0.113l0.004,0.227v0.115l0.002,0.112v0.343
				l-0.002,0.113v0.115l-0.004,0.225v0.115l-0.004,0.113l-0.005,0.452l-0.005,0.114l-0.004,0.114v0.114l-0.007,0.111l-0.005,0.113
				v0.115l-0.007,0.111l-0.002,0.112l-0.006,0.114l-0.006,0.113l-0.004,0.112l-0.018,0.339l-0.008,0.114l-0.007,0.113l-0.006,0.111
				l-0.006,0.115l-0.01,0.114l-0.005,0.114l-0.009,0.111l-0.015,0.228l-0.009,0.112l-0.009,0.113l-0.009,0.112l-0.01,0.114
				l-0.009,0.112l-0.009,0.113l-0.012,0.113l-0.009,0.112l-0.013,0.112l-0.008,0.112l-0.012,0.113l-0.009,0.112l-0.012,0.112
				l-0.012,0.114l-0.013,0.114l-0.011,0.112l-0.024,0.225l-0.015,0.114l-0.012,0.114l-0.011,0.111l-0.016,0.111l-0.027,0.226
				l-0.015,0.113l-0.014,0.112l-0.03,0.223l-0.014,0.111l-0.016,0.115l-0.018,0.111l-0.015,0.111l-0.03,0.225l-0.02,0.109
				l-0.016,0.115l-0.015,0.109l-0.018,0.113l-0.018,0.115l-0.021,0.112l-0.014,0.111l-0.021,0.11l-0.019,0.112l-0.018,0.112
				l-0.039,0.225l-0.02,0.111l-0.019,0.11l-0.021,0.112l-0.018,0.112l-0.021,0.112l-0.023,0.109l-0.041,0.221l-0.062,0.333
				l-0.022,0.112l-0.021,0.11l-0.023,0.112l-0.048,0.218l-0.021,0.113L579,80.144l-0.023,0.113l-0.025,0.109l-0.048,0.221
				l-0.024,0.113l-0.025,0.107l-0.024,0.11l-0.025,0.111l-0.024,0.111l-0.079,0.331l-0.027,0.11l-0.026,0.108l-0.027,0.11
				l-0.082,0.33l-0.027,0.107l-0.085,0.33l-0.03,0.111l-0.026,0.109l-0.029,0.111l-0.032,0.107l-0.029,0.111l-0.03,0.109
				l-0.03,0.109l-0.062,0.219l-0.031,0.108l-0.029,0.107l-0.128,0.436l-0.033,0.107l-0.032,0.108l-0.032,0.107l-0.035,0.11
				l-0.03,0.106l-0.035,0.108l-0.032,0.108l-0.035,0.108l-0.032,0.108l-0.035,0.107l-0.144,0.433l-0.034,0.107l-0.035,0.107
				l-0.071,0.215l-0.038,0.107l-0.036,0.108l-0.077,0.212l-0.035,0.107l-0.073,0.214l-0.077,0.213l-0.038,0.106l-0.042,0.106
				l-0.038,0.107l-0.038,0.103l-0.039,0.109l-0.04,0.106l-0.042,0.106l-0.039,0.105l-0.04,0.105l-0.042,0.108l-0.038,0.104
				l-0.045,0.106l-0.042,0.105l-0.167,0.421l-0.041,0.104l-0.043,0.103l-0.041,0.106l-0.044,0.105l-0.041,0.103l-0.092,0.21
				l-0.041,0.103l-0.044,0.105l-0.045,0.104l-0.047,0.104l-0.044,0.106l-0.045,0.103l-0.048,0.103l-0.044,0.103l-0.048,0.105
				l-0.043,0.104l-0.188,0.41l-0.097,0.208l-0.044,0.101l-0.05,0.104l-0.048,0.101l-0.048,0.105l-0.194,0.405l-0.201,0.409
				l-0.05,0.101l-0.051,0.1l-0.05,0.103l-0.153,0.304l-0.104,0.201l-0.051,0.101l-0.053,0.102l-0.053,0.1l-0.054,0.101l-0.262,0.499
				l-0.057,0.098l-0.054,0.1l-0.053,0.102l-0.057,0.098l-0.054,0.099l-0.055,0.101l-0.057,0.098l-0.109,0.198l-0.057,0.097
				l-0.056,0.099l-0.115,0.198l-0.056,0.096l-0.057,0.099l-0.056,0.098l-0.115,0.194l-0.06,0.098l-0.056,0.097l-0.115,0.196
				l-0.122,0.192l-0.056,0.099l-0.062,0.095l-0.059,0.097l-0.061,0.097l-0.238,0.383l-0.121,0.192l-0.062,0.094l-0.06,0.097
				l-0.065,0.094l-0.059,0.096l-0.062,0.094l-0.062,0.098l-0.062,0.092l-0.062,0.096l-0.065,0.096l-0.062,0.092l-0.062,0.093
				l-0.063,0.095l-0.064,0.092l-0.065,0.095l-0.061,0.093l-0.065,0.095l-0.062,0.092l-0.065,0.093l-0.13,0.186l-0.067,0.093
				l-0.063,0.093l-0.067,0.092l-0.065,0.089l-0.064,0.094l-0.065,0.093l-0.067,0.09l-0.065,0.092l-0.133,0.184l-0.067,0.091
				l-0.065,0.091l-0.07,0.091l-0.065,0.092l-0.204,0.271l-0.07,0.091l-0.065,0.09l-0.142,0.179l-0.068,0.093l-0.139,0.178
				l-0.067,0.09l-0.07,0.09l-0.069,0.089l-0.07,0.087l-0.07,0.091l-0.071,0.087l-0.07,0.09l-0.071,0.087l-0.071,0.088l-0.074,0.089
				l-0.067,0.087l-0.071,0.088l-0.074,0.085l-0.289,0.351l-0.07,0.086l-0.076,0.089l-0.072,0.085l-0.073,0.087l-0.147,0.172
				l-0.073,0.086l-0.075,0.086l-0.073,0.086l-0.074,0.085l-0.15,0.167l-0.076,0.085l-0.074,0.086l-0.077,0.083l-0.072,0.085
				l-0.229,0.253l-0.076,0.084l-0.077,0.085l-0.077,0.081l-0.153,0.167l-0.077,0.082l-0.153,0.167l-0.079,0.081l-0.078,0.083
				l-0.079,0.081l-0.077,0.084l-0.156,0.163l-0.08,0.081l-0.076,0.079l-0.079,0.083l-0.081,0.08l-0.08,0.079l-0.079,0.083
				l-0.08,0.079l-0.079,0.08l-0.079,0.08l-0.08,0.082l-0.242,0.236l-0.08,0.079l-0.08,0.08l-0.082,0.079l-0.166,0.155l-0.08,0.08
				l-0.082,0.078l-0.083,0.078l-0.083,0.076l-0.079,0.079l-0.334,0.307l-0.082,0.078l-0.083,0.077l-0.084,0.075l-0.081,0.078
				l-0.169,0.152l-0.086,0.074l-0.085,0.076l-0.086,0.074l-0.423,0.374l-0.085,0.072l-0.086,0.078l-0.343,0.294l-0.088,0.071
				l-0.086,0.075l-0.089,0.07l-0.085,0.072l-0.176,0.146l-0.087,0.072l-0.086,0.072l-0.178,0.144l-0.174,0.142l-0.089,0.07
				l-0.089,0.073l-0.177,0.139l-0.09,0.068l-0.088,0.07l-0.089,0.071l-0.179,0.138l-0.09,0.071l-0.089,0.069l-0.091,0.068
				l-0.092,0.066l-0.092,0.069l-0.088,0.068l-0.271,0.206l-0.184,0.134l-0.092,0.066l-0.088,0.067l-0.092,0.066l-0.092,0.065
				l-0.091,0.067l-0.096,0.065l-0.091,0.066l-0.092,0.064l-0.092,0.065l-0.187,0.132l-0.371,0.258l-0.095,0.065L557,112.889
				l-0.093,0.064l-0.187,0.127l-0.095,0.063l-0.094,0.062l-0.189,0.124l-0.093,0.064l-0.094,0.062l-0.098,0.062l-0.095,0.062
				l-0.283,0.186l-0.099,0.059l-0.093,0.06l-0.098,0.062l-0.095,0.062l-0.384,0.238l-0.194,0.119l-0.096,0.057l-0.098,0.06
				l-0.098,0.058l-0.097,0.06l-0.098,0.058l-0.292,0.173l-0.095,0.058l-0.1,0.057l-0.098,0.059l-0.196,0.111l-0.1,0.057
				l-0.098,0.054l-0.098,0.056l-0.101,0.058l-0.197,0.111l-0.098,0.054l-0.101,0.055l-0.101,0.056l-0.098,0.054l-0.1,0.054
				l-0.101,0.056l-0.098,0.054l-0.1,0.051l-0.2,0.106l-0.102,0.054l-0.1,0.053l-0.102,0.053l-0.302,0.155l-0.3,0.154l-0.104,0.05
				l-0.101,0.051l-0.104,0.051l-0.102,0.049l-0.1,0.05l-0.308,0.15l-0.2,0.098l-0.105,0.049l-0.102,0.048l-0.1,0.049l-0.104,0.047
				l-0.103,0.05l-0.104,0.047l-0.104,0.047l-0.1,0.049l-0.104,0.044l-0.103,0.049l-0.104,0.045l-0.104,0.045l-0.104,0.048
				l-0.103,0.044l-0.107,0.048l-0.1,0.045l-0.106,0.046l-0.104,0.044l-0.104,0.045l-0.419,0.178l-0.104,0.042l-0.104,0.044
				l-0.21,0.085l-0.106,0.043l-0.103,0.042l-0.423,0.166l-0.104,0.042l-0.106,0.041l-0.106,0.043l-0.106,0.038l-0.104,0.041
				l-0.105,0.041l-0.109,0.039l-0.104,0.041l-0.319,0.116l-0.212,0.079l-0.106,0.037l-0.106,0.039l-0.109,0.037l-0.105,0.039
				l-0.107,0.037l-0.104,0.035l-0.108,0.037l-0.106,0.036l-0.108,0.036l-0.215,0.076l-0.105,0.032l-0.109,0.038l-0.106,0.033
				l-0.109,0.037l-0.105,0.032l-0.109,0.034l-0.106,0.038l-0.11,0.034l-0.108,0.033l-0.106,0.033l-0.108,0.033l-0.107,0.035
				l-0.109,0.031l-0.105,0.035l-0.109,0.029l-0.108,0.033l-0.436,0.127l-0.109,0.029l-0.109,0.034l-0.108,0.03l-0.109,0.028
				l-0.11,0.03l-0.105,0.029l-0.222,0.061l-0.106,0.03l-0.112,0.029l-0.218,0.056l-0.11,0.03l-0.108,0.028l-0.113,0.026
				l-0.438,0.108l-0.11,0.026l-0.109,0.028l-0.219,0.052l-0.112,0.023l-0.11,0.026l-0.109,0.027l-0.221,0.047l-0.109,0.026
				l-0.112,0.022l-0.111,0.025l-0.223,0.049l-0.109,0.023l-0.111,0.022l-0.334,0.068l-0.109,0.019l-0.108,0.024l-0.225,0.044
				l-0.11,0.018l-0.112,0.024l-0.111,0.02l-0.223,0.041l-0.111,0.021l-0.222,0.036l-0.225,0.042l-0.111,0.02l-0.113,0.018
				l-0.109,0.019l-0.111,0.019l-0.113,0.015l-0.114,0.018l-0.109,0.021l-0.112,0.015l-0.113,0.019l-0.111,0.017l-0.112,0.016
				l-0.111,0.015l-0.11,0.019l-0.112,0.017l-0.111,0.014l-0.113,0.015l-0.336,0.046l-0.112,0.013l-0.112,0.014l-0.112,0.013
				l-0.226,0.028l-0.114,0.015l-0.111,0.01l-0.113,0.017l-0.111,0.01l-0.113,0.012l-0.111,0.015l-0.228,0.021l-0.225,0.021
				l-0.336,0.031l-0.115,0.012l-0.109,0.007l-0.115,0.012l-0.113,0.007l-0.112,0.011l-0.112,0.008l-0.111,0.008l-0.115,0.01
				l-0.112,0.01l-0.112,0.008l-0.115,0.006l-0.109,0.008l-0.115,0.007l-0.115,0.006l-0.224,0.015l-0.115,0.004l-0.113,0.006
				l-0.228,0.012l-0.112,0.008l-0.111,0.003l-0.111,0.005l-0.113,0.002l-0.115,0.007l-0.109,0.004l-0.115,0.003l-0.112,0.005
				l-0.112,0.001l-0.227,0.008l-0.34,0.008h-0.112l-0.115,0.005l-0.34,0.002h-0.115h-0.112h-0.343h-0.115l-0.111-0.002h-0.115
				h-0.112l-0.112-0.004l-0.115-0.001l-0.34-0.008l-0.112-0.002l-0.115-0.002l-0.227-0.008l-0.11-0.004l-0.115-0.004l-0.112-0.002
				l-0.111-0.006l-0.115-0.006l-0.109-0.004l-0.115-0.004l-0.113-0.007l-0.224-0.01l-0.112-0.007l-0.114-0.006l-0.113-0.008
				l-0.115-0.006l-0.228-0.014l-0.112-0.008l-0.111-0.009l-0.34-0.022l-0.113-0.008l-0.111-0.012l-0.115-0.008l-0.109-0.009
				l-0.114-0.011l-0.113-0.01l-0.112-0.01l-0.112-0.01l-0.115-0.01l-0.109-0.012l-0.225-0.023l-0.227-0.021l-0.112-0.014
				l-0.228-0.022l-0.112-0.015l-0.112-0.013l-0.113-0.013l-0.11-0.014l-0.225-0.028l-0.113-0.015l-0.112-0.014l-0.448-0.059
				l-0.113-0.016l-0.223-0.032l-0.112-0.017l-0.11-0.017l-0.112-0.016l-0.223-0.036l-0.113-0.017l-0.113-0.018l-0.108-0.02
				l-0.114-0.019l-0.226-0.036l-0.11-0.02l-0.11-0.018l-0.112-0.02l-0.112-0.021l-0.113-0.021l-0.221-0.04l-0.111-0.019l-0.11-0.021
				l-0.334-0.065l-0.11-0.022l-0.111-0.02l-0.442-0.093l-0.556-0.118l-0.11-0.024l-0.224-0.051l-0.109-0.023l-0.109-0.024
				l-0.219-0.053l-0.111-0.025l-0.222-0.053l-0.219-0.057l-0.109-0.024l-0.219-0.056l-0.109-0.027l-0.221-0.058l-0.109-0.029
				l-0.108-0.028l-0.22-0.059l-0.108-0.031l-0.109-0.027l-0.109-0.031l-0.109-0.029l-0.325-0.094l-0.543-0.156l-0.109-0.034
				l-0.108-0.033l-0.108-0.033l-0.108-0.032l-0.107-0.03l-0.108-0.036l-0.219-0.069L511,119.598l-0.11-0.033l-0.106-0.038
				l-0.322-0.104l-0.108-0.037l-0.109-0.033l-0.105-0.039l-0.107-0.034l-0.105-0.036l-0.109-0.036l-0.106-0.037l-0.319-0.113
				l-0.105-0.041l-0.106-0.036l-0.212-0.076l-0.107-0.039l-0.106-0.039l-0.106-0.04l-0.106-0.04l-0.106-0.039l-0.106-0.041
				l-0.103-0.04l-0.109-0.04l-0.21-0.082l-0.106-0.042l-0.104-0.04l-0.105-0.041l-0.106-0.043l-0.106-0.043l-0.103-0.041
				l-0.104-0.044l-0.107-0.042l-0.103-0.044l-0.106-0.042l-0.104-0.043l-0.103-0.045l-0.106-0.041l-0.206-0.091l-0.107-0.044
				l-0.104-0.045l-0.208-0.089l-0.103-0.047l-0.104-0.047l-0.101-0.044l-0.106-0.048l-0.308-0.139l-0.207-0.096l-0.103-0.046
				l-0.104-0.049l-0.101-0.049l-0.104-0.046l-0.202-0.099l-0.104-0.049l-0.205-0.096l-0.307-0.149l-0.1-0.051l-0.101-0.05
				l-0.104-0.05l-0.3-0.154l-0.101-0.051l-0.102-0.05l-0.1-0.054l-0.205-0.104l-0.1-0.053l-0.101-0.054l-0.098-0.051l-0.2-0.107
				l-0.1-0.056l-0.099-0.052l-0.1-0.056l-0.101-0.055l-0.101-0.052l-0.097-0.055l-0.098-0.055l-0.102-0.057l-0.395-0.221
				l-0.098-0.057l-0.098-0.057l-0.101-0.058l-0.098-0.055l-0.098-0.058l-0.098-0.057l-0.098-0.059l-0.291-0.171l-0.098-0.06
				l-0.098-0.06l-0.097-0.059l-0.096-0.057l-0.192-0.119l-0.101-0.06l-0.094-0.06l-0.098-0.061l-0.094-0.059l-0.098-0.059
				l-0.096-0.062l-0.094-0.063l-0.098-0.059l-0.282-0.186l-0.096-0.06l-0.095-0.062l-0.098-0.062l-0.091-0.064l-0.098-0.062
				l-0.092-0.062l-0.098-0.063l-0.091-0.062l-0.189-0.125l-0.091-0.065l-0.095-0.063l-0.095-0.064l-0.095-0.063l-0.184-0.129
				l-0.094-0.066l-0.092-0.065l-0.095-0.064l-0.092-0.066l-0.092-0.064l-0.091-0.066l-0.183-0.133l-0.278-0.199l-0.089-0.065
				l-0.091-0.068l-0.092-0.066l-0.092-0.068l-0.271-0.203l-0.089-0.07l-0.092-0.068l-0.176-0.138l-0.092-0.069l-0.092-0.068
				l-0.089-0.07l-0.086-0.069l-0.092-0.068l-0.088-0.071l-0.089-0.07l-0.178-0.143l-0.088-0.07l-0.089-0.07l-0.088-0.071
				l-0.087-0.07l-0.088-0.072l-0.174-0.145l-0.349-0.289l-0.089-0.074l-0.086-0.071l-0.429-0.37l-0.085-0.071l-0.086-0.076
				l-0.342-0.299l-0.083-0.073l-0.086-0.077l-0.084-0.074l-0.085-0.077l-0.25-0.228l-0.083-0.078l-0.082-0.075l-0.087-0.077
				l-0.082-0.078l-0.165-0.154l-0.083-0.077l-0.083-0.076l-0.08-0.079l-0.083-0.079l-0.082-0.077l-0.083-0.078l-0.079-0.079
				l-0.083-0.079l-0.08-0.076l-0.082-0.081l-0.16-0.159l-0.082-0.08l-0.24-0.24l-0.079-0.08l-0.08-0.079l-0.158-0.16l-0.08-0.083
				l-0.079-0.08l-0.078-0.082l-0.08-0.081l-0.155-0.162l-0.078-0.085l-0.079-0.079l-0.073-0.084l-0.08-0.082l-0.23-0.247
				l-0.08-0.086l-0.073-0.081l-0.077-0.084l-0.381-0.419l-0.078-0.087l-0.073-0.083l-0.074-0.083l-0.076-0.086l-0.074-0.086
				l-0.075-0.085l-0.075-0.086l-0.073-0.086l-0.074-0.085l-0.296-0.343l-0.069-0.09l-0.074-0.085l-0.074-0.086l-0.07-0.086
				l-0.145-0.176l-0.071-0.088l-0.074-0.087l-0.071-0.087l-0.069-0.089l-0.072-0.087l-0.07-0.088l-0.143-0.179l-0.07-0.089
				l-0.142-0.176l-0.068-0.089l-0.07-0.089l-0.067-0.09l-0.071-0.089l-0.14-0.18l-0.067-0.091l-0.067-0.09l-0.071-0.092
				l-0.204-0.271l-0.065-0.09l-0.07-0.091l-0.065-0.092l-0.064-0.091l-0.067-0.092l-0.068-0.09l-0.064-0.092l-0.065-0.093
				l-0.067-0.093l-0.134-0.183l-0.064-0.093l-0.065-0.093l-0.064-0.092l-0.131-0.184l-0.064-0.094l-0.127-0.187l-0.064-0.095
				l-0.065-0.093l-0.062-0.092l-0.064-0.094l-0.06-0.094l-0.068-0.095l-0.058-0.093l-0.062-0.094l-0.064-0.096l-0.061-0.093
				l-0.064-0.094l-0.121-0.191l-0.062-0.094l-0.061-0.094l-0.06-0.096l-0.062-0.097l-0.059-0.097l-0.062-0.092l-0.061-0.098
				l-0.059-0.096l-0.121-0.194l-0.059-0.096l-0.058-0.098l-0.061-0.095l-0.059-0.099l-0.057-0.095l-0.059-0.096l-0.175-0.292
				l-0.056-0.098l-0.06-0.099l-0.056-0.095l-0.113-0.198l-0.056-0.098l-0.056-0.099l-0.169-0.295l-0.055-0.099l-0.054-0.099
				l-0.057-0.101l-0.053-0.099l-0.056-0.098l-0.055-0.098l-0.055-0.101l-0.054-0.103l-0.053-0.096l-0.055-0.104l-0.105-0.197
				l-0.051-0.102l-0.052-0.101l-0.055-0.1l-0.053-0.099l-0.05-0.101l-0.054-0.102l-0.05-0.1l-0.05-0.101l-0.054-0.101l-0.049-0.101
				l-0.052-0.103l-0.051-0.101l-0.198-0.408l-0.052-0.102l-0.048-0.103l-0.097-0.202l-0.048-0.104l-0.047-0.102l-0.05-0.102
				l-0.096-0.204l-0.046-0.106l-0.048-0.1l-0.048-0.103l-0.048-0.106l-0.043-0.104l-0.048-0.1l-0.044-0.103l-0.048-0.106
				l-0.043-0.102l-0.092-0.209l-0.046-0.103l-0.043-0.104l-0.133-0.313l-0.044-0.103l-0.045-0.105l-0.041-0.106l-0.085-0.208
				l-0.046-0.105l-0.042-0.103l-0.039-0.106l-0.086-0.213l-0.04-0.103l-0.043-0.104l-0.042-0.108l-0.08-0.211l-0.041-0.104
				l-0.042-0.104l-0.155-0.428l-0.039-0.106l-0.038-0.106l-0.077-0.21l-0.038-0.107l-0.038-0.108l-0.035-0.105l-0.04-0.107
				l-0.037-0.108l-0.036-0.109l-0.038-0.104l-0.036-0.107l-0.037-0.108l-0.035-0.109l-0.032-0.104l-0.036-0.109l-0.039-0.107
				l-0.032-0.108l-0.036-0.109l-0.035-0.105l-0.034-0.109l-0.035-0.108l-0.034-0.109l-0.031-0.108l-0.036-0.106l-0.029-0.11
				l-0.036-0.107l-0.031-0.108l-0.032-0.107l-0.033-0.111l-0.128-0.434l-0.091-0.325l-0.03-0.111l-0.028-0.11l-0.03-0.107
				l-0.033-0.11l-0.025-0.109l-0.032-0.111l-0.029-0.109l-0.028-0.108l-0.028-0.112l-0.029-0.107l-0.024-0.109l-0.033-0.111
				l-0.023-0.107l-0.081-0.331l-0.028-0.109l-0.025-0.111l-0.026-0.107l-0.023-0.112l-0.054-0.221l-0.023-0.112l-0.027-0.106
				l-0.022-0.112l-0.028-0.112l-0.021-0.112L475.3,80.31l-0.023-0.11l-0.023-0.112l-0.024-0.112l-0.067-0.331l-0.023-0.113
				l-0.107-0.555l-0.02-0.109l-0.021-0.109l-0.022-0.112l-0.018-0.113l-0.02-0.112l-0.021-0.111l-0.02-0.112l-0.021-0.111
				l-0.018-0.112l-0.018-0.112l-0.021-0.113l-0.018-0.111l-0.018-0.112l-0.018-0.11l-0.018-0.115l-0.033-0.224l-0.019-0.11
				l-0.016-0.112l-0.016-0.114l-0.018-0.11l-0.048-0.337l-0.057-0.446l-0.018-0.112l-0.015-0.114l-0.011-0.11l-0.013-0.115
				l-0.015-0.112l-0.012-0.112l-0.016-0.112l-0.011-0.114l-0.013-0.111l-0.012-0.115l-0.015-0.112l-0.009-0.112l-0.024-0.225
				l-0.008-0.111l-0.012-0.114l-0.013-0.112l-0.008-0.111l-0.01-0.114l-0.011-0.113l-0.009-0.111l-0.018-0.226l-0.011-0.114
				l-0.021-0.339l-0.011-0.112l-0.005-0.113l-0.008-0.114l-0.007-0.111l-0.009-0.116l-0.003-0.112l-0.009-0.116l-0.006-0.111
				l-0.007-0.114l-0.006-0.114l-0.006-0.111l-0.003-0.114l-0.005-0.112l-0.006-0.114l-0.005-0.111l-0.005-0.113v-0.114l-0.006-0.111
				l-0.009-0.338l-0.012-0.568v-0.114l-0.003-0.227v-0.113v-0.114l-0.003-0.113v-0.229l0.003-0.112V68.73v-0.114l0.003-0.228v-0.113
				l0.012-0.567l0.009-0.339l0.006-0.112v-0.114l0.005-0.114l0.005-0.111l0.006-0.114l0.005-0.112l0.003-0.113l0.006-0.113
				l0.006-0.114l0.007-0.113l0.006-0.112l0.009-0.114l0.003-0.112l0.009-0.114l0.007-0.114l0.008-0.112l0.005-0.113l0.011-0.112
				l0.021-0.34l0.011-0.112l0.018-0.227l0.009-0.112l0.011-0.113l0.01-0.112l0.008-0.112l0.013-0.112l0.012-0.114l0.008-0.111
				l0.024-0.224l0.009-0.114l0.015-0.111l0.012-0.114l0.013-0.113l0.011-0.114l0.016-0.111l0.012-0.114l0.015-0.112l0.013-0.113
				l0.011-0.112l0.015-0.113l0.018-0.111l0.057-0.449l0.048-0.336l0.018-0.111l0.016-0.112l0.016-0.112l0.019-0.112l0.033-0.224
				l0.018-0.112l0.018-0.112l0.018-0.113l0.018-0.111l0.021-0.112l0.018-0.112l0.018-0.111l0.021-0.112l0.02-0.112l0.021-0.111
				l0.02-0.111l0.018-0.113l0.022-0.11l0.021-0.11l0.02-0.111l0.107-0.555l0.023-0.11l0.067-0.333l0.024-0.111l0.023-0.111
				l0.023-0.11l0.024-0.111l0.021-0.112l0.028-0.111l0.022-0.11l0.027-0.11l0.023-0.111l0.054-0.22l0.023-0.11l0.026-0.11
				l0.025-0.11l0.028-0.109l0.081-0.33l0.023-0.109l0.033-0.11l0.024-0.11l0.029-0.108l0.028-0.111l0.028-0.109l0.029-0.108
				l0.032-0.11l0.025-0.11l0.033-0.108l0.03-0.11l0.028-0.109l0.03-0.11l0.091-0.326l0.128-0.435l0.033-0.109l0.032-0.108
				l0.031-0.107l0.036-0.109l0.029-0.109l0.036-0.107l0.031-0.108l0.034-0.107l0.035-0.109l0.034-0.108l0.035-0.107l0.036-0.109
				l0.032-0.109l0.039-0.107l0.036-0.107l0.032-0.108l0.035-0.108l0.037-0.106l0.036-0.107l0.038-0.106l0.036-0.108l0.037-0.106
				l0.04-0.107l0.035-0.107l0.038-0.106l0.038-0.107l0.077-0.211l0.038-0.105l0.039-0.107l0.155-0.426l0.042-0.104l0.041-0.106
				l0.08-0.211l0.042-0.107l0.043-0.106l0.04-0.104l0.086-0.211l0.039-0.104l0.042-0.105l0.046-0.106l0.085-0.207l0.041-0.106
				l0.045-0.104l0.044-0.104l0.133-0.313l0.043-0.104l0.046-0.105l0.092-0.208l0.043-0.102l0.048-0.105l0.044-0.104l0.048-0.101
				l0.043-0.105l0.048-0.103l0.048-0.104l0.048-0.102l0.046-0.103l0.096-0.206l0.05-0.102l0.047-0.102l0.048-0.103l0.097-0.204
				l0.048-0.101l0.052-0.103l0.198-0.409l0.051-0.1l0.052-0.101l0.049-0.101l0.054-0.103l0.05-0.101l0.05-0.101l0.054-0.102
				l0.05-0.1l0.053-0.1l0.055-0.101l0.052-0.101l0.051-0.1l0.105-0.198l0.055-0.103l0.053-0.098l0.054-0.1l0.055-0.101l0.055-0.099
				l0.056-0.1l0.053-0.098l0.057-0.1l0.054-0.098l0.055-0.1l0.169-0.296l0.056-0.099l0.056-0.096l0.113-0.197l0.056-0.098
				l0.06-0.097l0.056-0.098l0.175-0.292l0.059-0.098l0.057-0.096l0.059-0.097l0.061-0.097l0.058-0.097l0.059-0.096l0.121-0.193
				l0.059-0.096l0.061-0.096l0.062-0.095l0.059-0.097l0.062-0.096l0.06-0.096l0.061-0.095l0.062-0.095l0.121-0.191l0.064-0.094
				l0.061-0.094l0.064-0.095l0.062-0.094l0.058-0.095l0.068-0.094l0.06-0.094l0.064-0.094l0.062-0.092l0.065-0.094l0.064-0.094
				l0.127-0.187l0.064-0.093l0.131-0.185l0.064-0.093l0.065-0.092l0.064-0.093l0.134-0.183l0.067-0.093l0.065-0.092l0.064-0.091
				l0.068-0.09l0.067-0.092l0.064-0.09l0.065-0.092l0.07-0.091l0.065-0.09l0.204-0.271l0.071-0.092l0.067-0.089l0.067-0.09
				l0.14-0.179l0.071-0.088l0.067-0.089l0.07-0.09l0.068-0.09l0.142-0.177l0.07-0.088l0.143-0.178l0.07-0.089l0.072-0.086
				l0.069-0.089l0.071-0.086l0.074-0.088l0.071-0.087l0.145-0.175l0.07-0.085l0.074-0.088l0.074-0.085l0.069-0.087l0.296-0.345
				l0.074-0.084l0.073-0.086l0.075-0.085l0.075-0.086l0.074-0.084l0.076-0.086l0.074-0.083l0.073-0.085l0.078-0.085l0.381-0.418
				l0.077-0.085l0.073-0.083l0.08-0.083l0.23-0.248l0.08-0.083l0.073-0.083l0.079-0.081l0.078-0.083l0.155-0.163l0.08-0.081
				l0.078-0.082l0.079-0.082l0.08-0.081l0.158-0.162l0.08-0.08l0.079-0.082l0.24-0.239l0.082-0.08l0.16-0.158l0.082-0.08l0.08-0.079
				l0.083-0.079l0.079-0.079l0.083-0.079l0.082-0.078l0.083-0.079l0.08-0.078l0.083-0.077l0.083-0.078l0.165-0.153l0.082-0.078
				l0.087-0.076L491.283,30l0.083-0.078l0.25-0.228l0.085-0.076l0.084-0.075l0.086-0.075l0.083-0.077l0.342-0.298l0.086-0.075
				l0.085-0.074l0.429-0.368l0.086-0.072l0.089-0.075l0.349-0.289l0.174-0.143l0.088-0.072l0.087-0.072l0.088-0.071l0.089-0.07
				l0.088-0.071l0.178-0.141l0.089-0.071l0.088-0.069l0.092-0.07l0.086-0.069l0.089-0.07l0.092-0.069l0.092-0.069l0.176-0.139
				l0.092-0.068l0.089-0.069l0.271-0.203l0.092-0.067l0.092-0.068l0.091-0.066l0.089-0.066l0.278-0.2l0.183-0.132l0.091-0.066
				l0.092-0.064l0.092-0.066l0.095-0.065l0.092-0.065l0.094-0.066l0.184-0.128l0.095-0.063l0.095-0.065l0.095-0.063l0.091-0.064
				l0.189-0.127l0.091-0.062l0.098-0.063l0.092-0.063l0.098-0.062l0.091-0.063l0.098-0.062l0.095-0.062l0.096-0.062l0.282-0.184
				l0.098-0.061l0.094-0.061l0.096-0.061l0.098-0.06l0.094-0.06l0.098-0.061l0.094-0.059l0.101-0.059l0.192-0.118l0.096-0.059
				l0.097-0.059l0.098-0.057l0.098-0.061l0.291-0.173l0.098-0.057l0.098-0.058l0.098-0.055l0.098-0.057l0.101-0.057l0.098-0.056
				l0.098-0.056l0.395-0.223l0.102-0.054l0.098-0.056l0.097-0.055l0.101-0.055l0.101-0.054l0.1-0.053l0.099-0.054l0.1-0.055
				l0.2-0.105l0.098-0.052l0.101-0.053l0.1-0.053l0.205-0.104l0.1-0.052l0.102-0.052l0.101-0.052l0.3-0.153l0.104-0.048l0.101-0.052
				l0.1-0.05l0.307-0.149l0.205-0.098l0.104-0.049l0.202-0.097l0.104-0.048l0.101-0.049l0.104-0.047l0.103-0.047l0.207-0.095
				l0.308-0.139l0.106-0.047l0.101-0.045l0.104-0.046l0.103-0.045l0.208-0.091l0.104-0.045l0.107-0.045l0.206-0.088l0.106-0.043
				l0.103-0.044l0.104-0.043l0.106-0.042l0.103-0.042l0.107-0.044l0.104-0.041l0.103-0.043l0.106-0.042l0.106-0.042l0.105-0.042
				l0.104-0.041l0.106-0.042l0.21-0.082l0.109-0.041l0.103-0.039l0.106-0.041l0.106-0.041l0.106-0.04l0.106-0.039l0.106-0.039
				l0.107-0.039l0.212-0.077l0.106-0.038l0.105-0.038l0.319-0.113l0.106-0.038l0.109-0.037l0.105-0.036l0.107-0.036l0.105-0.037
				l0.109-0.034l0.108-0.037l0.322-0.105l0.106-0.035l0.11-0.036l0.105-0.033l0.219-0.068l0.108-0.035l0.107-0.033l0.108-0.032
				l0.108-0.032l0.108-0.034l0.109-0.033l0.543-0.158l0.325-0.092l0.109-0.032l0.109-0.03l0.109-0.029l0.108-0.03l0.22-0.058
				l0.108-0.029l0.109-0.03l0.221-0.056l0.109-0.027l0.219-0.056l0.109-0.026l0.219-0.054l0.222-0.052l0.111-0.026l0.219-0.053
				l0.109-0.025l0.109-0.025l0.224-0.049l0.11-0.025l0.556-0.119l0.442-0.09l0.111-0.022l0.11-0.022l0.334-0.064l0.11-0.02
				l0.111-0.021l0.221-0.042l0.113-0.02l0.112-0.021l0.112-0.018l0.11-0.021l0.11-0.019l0.226-0.035l0.114-0.02l0.108-0.019
				l0.113-0.017l0.113-0.017l0.223-0.035l0.112-0.017l0.11-0.016l0.112-0.017l0.223-0.032l0.113-0.017l0.448-0.058l0.112-0.015
				l0.113-0.015l0.225-0.028l0.11-0.014l0.113-0.013l0.112-0.013l0.112-0.013l0.228-0.023l0.112-0.014l0.227-0.022l0.225-0.023
				l0.109-0.009l0.115-0.011l0.112-0.01l0.112-0.011l0.113-0.009l0.114-0.01l0.109-0.009l0.115-0.009l0.111-0.008l0.113-0.01
				l0.34-0.023l0.111-0.008l0.112-0.008l0.228-0.013l0.115-0.007l0.113-0.008l0.114-0.005l0.112-0.006l0.224-0.011l0.113-0.005
				l0.115-0.006l0.109-0.004l0.115-0.005l0.111-0.004l0.112-0.003l0.115-0.004l0.11-0.004l0.227-0.006l0.115-0.003l0.112-0.003
				l0.34-0.006l0.115-0.002l0.112,0l0.112-0.002h0.115l0.111-0.002l0.115-0.001h0.343L527.388,16.046z M527.648,28.075l-0.115,0
				l-0.346,0.003l-0.113,0l-0.114,0.002l-0.337,0.007l-0.111,0.004l-0.115,0.003l-0.113,0.003l-0.112,0.004l-0.112,0.002
				l-0.109,0.005l-0.115,0.004l-0.109,0.005l-0.115,0.004l-0.111,0.005l-0.115,0.006l-0.115,0.006l-0.112,0.005l-0.115,0.007
				l-0.115,0.007l-0.111,0.006l-0.113,0.007l-0.228,0.016l-0.224,0.016l-0.225,0.018l-0.109,0.009l-0.113,0.009l-0.111,0.009
				l-0.112,0.01l-0.115,0.012l-0.112,0.01l-0.115,0.011l-0.113,0.012l-0.114,0.012l-0.111,0.011l-0.229,0.026l-0.111,0.012
				l-0.334,0.041l-0.112,0.014l-0.112,0.013l-0.222,0.03l-0.109,0.016l-0.115,0.016l-0.112,0.016l-0.454,0.068l-0.223,0.036
				l-0.111,0.019l-0.112,0.018l-0.222,0.039l-0.113,0.02l-0.108,0.019l-0.109,0.021l-0.109,0.021l-0.111,0.021l-0.109,0.022
				l-0.113,0.022l-0.224,0.046l-0.112,0.024l-0.112,0.023l-0.11,0.024l-0.11,0.023l-0.223,0.051l-0.109,0.023l-0.111,0.026
				l-0.107,0.026l-0.108,0.025l-0.22,0.056l-0.108,0.026l-0.109,0.027l-0.112,0.03l-0.108,0.029l-0.109,0.03l-0.109,0.028
				l-0.222,0.062l-0.11,0.03l-0.215,0.063l-0.108,0.032l-0.109,0.033l-0.106,0.031l-0.107,0.035l-0.105,0.032l-0.107,0.035
				l-0.108,0.033l-0.109,0.037l-0.11,0.035l-0.104,0.037l-0.11,0.037l-0.216,0.075l-0.105,0.037l-0.107,0.04l-0.104,0.038
				l-0.107,0.038l-0.105,0.04l-0.211,0.08l-0.103,0.039l-0.21,0.082l-0.106,0.043l-0.319,0.129l-0.104,0.044l-0.209,0.088
				l-0.104,0.046l-0.103,0.044l-0.208,0.094l-0.203,0.093l-0.203,0.094l-0.105,0.048l-0.202,0.098l-0.104,0.048l-0.104,0.05
				l-0.102,0.05l-0.1,0.05l-0.101,0.051l-0.1,0.052l-0.2,0.104l-0.104,0.053l-0.098,0.054l-0.1,0.054l-0.101,0.054l-0.098,0.057
				l-0.197,0.111l-0.098,0.056l-0.099,0.057l-0.194,0.115l-0.095,0.058l-0.101,0.059l-0.094,0.061l-0.098,0.06l-0.095,0.062
				l-0.095,0.059l-0.095,0.062l-0.094,0.062l-0.098,0.063l-0.094,0.062l-0.092,0.064l-0.095,0.063l-0.092,0.064l-0.096,0.065
				l-0.091,0.064l-0.092,0.066l-0.186,0.133l-0.088,0.067l-0.092,0.068l-0.091,0.068l-0.09,0.069l-0.181,0.138l-0.088,0.071
				l-0.089,0.07l-0.088,0.073l-0.174,0.141l-0.175,0.145l-0.171,0.147l-0.087,0.074l-0.085,0.074l-0.085,0.075l-0.087,0.076
				l-0.165,0.152l-0.082,0.077l-0.083,0.077l-0.086,0.078l-0.083,0.077l-0.079,0.08l-0.08,0.079l-0.162,0.158l-0.163,0.161
				l-0.076,0.082l-0.079,0.082l-0.081,0.082l-0.076,0.082l-0.08,0.082l-0.153,0.165l-0.228,0.251l-0.073,0.085l-0.077,0.084
				l-0.073,0.088l-0.074,0.085l-0.074,0.084l-0.074,0.087l-0.069,0.086l-0.076,0.087l-0.069,0.086l-0.071,0.087l-0.142,0.177
				l-0.143,0.179l-0.138,0.178l-0.136,0.178l-0.068,0.093l-0.067,0.09l-0.2,0.276l-0.066,0.093l-0.064,0.091l-0.195,0.279
				l-0.127,0.188l-0.06,0.094l-0.063,0.095l-0.125,0.191l-0.06,0.093l-0.062,0.096l-0.06,0.095l-0.12,0.192l-0.06,0.096
				l-0.177,0.293l-0.057,0.099l-0.059,0.096l-0.057,0.097l-0.056,0.099l-0.057,0.097l-0.108,0.198l-0.057,0.099l-0.057,0.1
				l-0.052,0.102l-0.055,0.099l-0.053,0.1l-0.156,0.298l-0.106,0.202l-0.051,0.101l-0.1,0.203l-0.101,0.204l-0.051,0.102
				l-0.047,0.102l-0.05,0.102l-0.045,0.101l-0.145,0.31l-0.047,0.105l-0.048,0.103l-0.044,0.105l-0.092,0.208l-0.089,0.205
				l-0.088,0.209l-0.045,0.105l-0.045,0.104l-0.04,0.104l-0.045,0.106l-0.041,0.104l-0.042,0.106l-0.044,0.104l-0.038,0.104
				l-0.083,0.21l-0.038,0.107l-0.042,0.104l-0.037,0.106l-0.039,0.108l-0.042,0.106l-0.038,0.107l-0.037,0.107l-0.037,0.104
				l-0.11,0.32l-0.04,0.107l-0.035,0.107l-0.038,0.107l-0.032,0.109l-0.039,0.108l-0.068,0.216l-0.035,0.106l-0.035,0.108
				l-0.032,0.106l-0.032,0.108l-0.035,0.108l-0.032,0.108l-0.065,0.217l-0.033,0.11l-0.032,0.107l-0.03,0.111l-0.032,0.109
				l-0.032,0.108l-0.028,0.108l-0.063,0.218l-0.028,0.108l-0.03,0.108l-0.029,0.11l-0.026,0.111l-0.033,0.109l-0.029,0.111
				l-0.026,0.111l-0.029,0.11l-0.026,0.107l-0.027,0.11l-0.026,0.108l-0.029,0.11l-0.026,0.109l-0.023,0.11l-0.028,0.11
				l-0.078,0.333l-0.026,0.11l-0.024,0.113l-0.023,0.108l-0.026,0.11l-0.071,0.33l-0.023,0.11l-0.021,0.112l-0.027,0.11l-0.02,0.113
				l-0.024,0.11l-0.048,0.225l-0.02,0.11l-0.021,0.11l-0.021,0.111l-0.021,0.11l-0.023,0.111l-0.039,0.222l-0.041,0.224
				l-0.021,0.111l-0.02,0.113l-0.019,0.113l-0.019,0.112l-0.021,0.112l-0.017,0.109l-0.036,0.222l-0.021,0.112l-0.015,0.111
				l-0.021,0.112l-0.051,0.336l-0.018,0.113l-0.018,0.112l-0.015,0.114l-0.015,0.111l-0.032,0.223l-0.019,0.111l-0.013,0.111
				l-0.016,0.113l-0.044,0.336l-0.015,0.113l-0.013,0.113l-0.016,0.114l-0.028,0.227l-0.012,0.113l-0.015,0.11l-0.013,0.111
				l-0.014,0.113l-0.023,0.224l-0.013,0.112l-0.016,0.113l-0.008,0.113l-0.015,0.112l-0.032,0.34l-0.013,0.115l-0.012,0.111
				l-0.021,0.224l-0.009,0.113l-0.012,0.112l-0.009,0.112l-0.012,0.113l-0.01,0.112l-0.017,0.227l-0.012,0.112l-0.019,0.229
				l-0.009,0.114l-0.009,0.112l-0.016,0.225l-0.008,0.11l-0.005,0.114l-0.01,0.112l-0.009,0.113l-0.008,0.112l-0.019,0.34
				l-0.015,0.229l-0.007,0.114l-0.006,0.113l-0.006,0.111l-0.006,0.112l-0.008,0.112l-0.006,0.113l-0.007,0.112l-0.003,0.114
				l-0.006,0.113l-0.007,0.112l-0.002,0.115l-0.012,0.226l-0.012,0.344l-0.002,0.112l-0.007,0.113l-0.003,0.111l-0.006,0.225
				l-0.007,0.114l-0.002,0.111l-0.003,0.114l-0.003,0.113l-0.004,0.114l-0.003,0.114l-0.003,0.112l-0.006,0.344l-0.002,0.114v0.111
				l-0.004,0.112v0.112l-0.003,0.114l-0.003,0.112l-0.002,0.453v0.113v0.113v0.115l-0.004,0.114v7.367l0.004,0.114v0.115v0.112
				v0.116l0.002,0.113v0.114v0.113l0.003,0.114l0.003,0.113v0.111l0.004,0.114l0.002,0.224l0.004,0.112l0.005,0.226l0.003,0.11
				l0.012,0.458l0.007,0.115l0.006,0.115l0.01,0.224l0.002,0.115l0.002,0.114l0.007,0.112l0.006,0.113l0.003,0.113l0.006,0.112
				l0.015,0.224l0.003,0.112l0.007,0.111l0.006,0.11l0.005,0.115l0.015,0.228l0.01,0.115l0.006,0.112l0.006,0.115l0.032,0.453
				l0.006,0.112l0.013,0.114l0.008,0.112l0.005,0.11l0.022,0.226l0.008,0.11l0.01,0.112l0.012,0.112l0.021,0.228l0.008,0.112
				l0.01,0.115l0.012,0.115l0.036,0.339l0.011,0.112l0.013,0.11l0.034,0.338l0.027,0.222l0.013,0.111l0.025,0.224l0.016,0.111
				l0.015,0.116l0.014,0.111l0.013,0.115l0.015,0.112l0.014,0.113l0.018,0.114l0.016,0.112l0.015,0.11l0.016,0.112l0.017,0.112
				l0.018,0.111l0.016,0.112l0.035,0.222l0.015,0.11l0.018,0.112l0.018,0.112l0.037,0.227l0.02,0.111l0.018,0.112l0.056,0.337
				l0.022,0.112l0.02,0.109l0.021,0.113l0.02,0.111l0.021,0.11l0.019,0.109l0.021,0.113l0.023,0.111l0.021,0.108l0.021,0.113
				l0.023,0.111l0.046,0.225l0.021,0.11l0.024,0.111l0.048,0.224l0.026,0.108l0.023,0.111l0.023,0.11l0.051,0.22l0.022,0.111
				l0.027,0.107l0.024,0.11l0.025,0.111l0.109,0.443l0.03,0.11l0.083,0.331l0.028,0.107l0.119,0.434l0.029,0.109l0.029,0.107
				l0.032,0.107l0.03,0.113l0.065,0.22l0.032,0.108l0.031,0.108l0.034,0.111l0.063,0.216l0.071,0.215l0.032,0.106l0.033,0.106
				l0.105,0.32l0.036,0.108l0.041,0.109l0.035,0.106l0.074,0.217l0.038,0.109l0.039,0.105l0.074,0.215l0.041,0.103l0.038,0.106
				l0.038,0.106l0.041,0.105l0.038,0.103l0.041,0.104l0.043,0.108l0.041,0.104l0.042,0.109l0.044,0.103l0.041,0.109l0.044,0.102
				l0.041,0.106l0.045,0.104l0.089,0.208l0.044,0.102l0.044,0.103l0.048,0.104l0.044,0.101l0.047,0.104l0.046,0.104l0.046,0.104
				l0.095,0.207l0.102,0.206l0.093,0.203l0.05,0.104l0.151,0.3l0.05,0.101l0.054,0.101l0.051,0.1l0.053,0.101l0.106,0.204
				l0.05,0.099l0.057,0.101l0.056,0.101l0.053,0.099l0.054,0.099l0.056,0.098l0.058,0.097l0.056,0.1l0.111,0.192l0.057,0.1
				l0.059,0.097l0.059,0.099l0.061,0.096l0.117,0.193l0.118,0.194l0.062,0.093l0.12,0.191l0.124,0.188l0.063,0.094l0.064,0.096
				l0.062,0.092l0.13,0.191l0.13,0.185l0.065,0.091l0.133,0.184l0.198,0.271l0.067,0.092l0.14,0.182l0.139,0.18l0.069,0.087
				l0.072,0.091l0.071,0.088l0.069,0.087l0.067,0.09l0.076,0.087l0.218,0.256l0.074,0.089l0.073,0.087l0.147,0.167l0.077,0.086
				l0.073,0.086l0.08,0.084l0.074,0.085l0.23,0.247l0.156,0.161l0.079,0.083l0.081,0.081l0.08,0.083l0.078,0.077l0.243,0.239
				l0.082,0.078l0.081,0.078l0.081,0.078l0.166,0.154l0.086,0.076l0.165,0.153l0.085,0.074l0.084,0.075l0.086,0.074l0.085,0.073
				l0.086,0.075l0.085,0.071l0.089,0.074l0.086,0.074l0.088,0.071l0.089,0.072l0.086,0.07l0.176,0.14l0.09,0.071l0.181,0.136
				l0.088,0.071l0.092,0.068l0.091,0.066l0.092,0.068l0.089,0.066l0.095,0.066l0.092,0.067l0.092,0.065l0.094,0.065l0.184,0.128
				l0.188,0.127l0.095,0.062l0.091,0.062l0.098,0.062l0.095,0.062l0.098,0.062l0.381,0.239l0.098,0.06l0.098,0.059l0.098,0.056
				l0.098,0.057l0.097,0.058l0.098,0.058l0.098,0.057l0.101,0.057l0.1,0.056l0.3,0.163l0.1,0.053l0.097,0.052l0.104,0.053
				l0.098,0.051l0.101,0.054l0.1,0.05l0.101,0.052l0.104,0.05l0.103,0.05l0.102,0.047l0.31,0.146l0.104,0.049l0.1,0.046l0.207,0.092
				l0.206,0.091l0.313,0.132l0.104,0.045l0.107,0.044l0.104,0.042l0.104,0.043l0.106,0.043l0.106,0.039l0.103,0.04l0.106,0.042
				l0.213,0.079l0.315,0.115l0.106,0.037l0.108,0.037l0.11,0.039l0.106,0.037l0.106,0.036l0.109,0.035l0.106,0.036l0.109,0.033
				l0.106,0.036l0.105,0.033l0.107,0.032l0.109,0.035l0.105,0.031l0.113,0.033l0.104,0.031l0.11,0.032l0.112,0.029l0.109,0.033
				l0.219,0.061l0.108,0.029l0.106,0.029l0.108,0.031l0.11,0.025l0.109,0.028l0.108,0.026l0.219,0.058l0.109,0.025l0.333,0.078
				l0.113,0.025l0.112,0.023l0.112,0.025l0.109,0.023l0.439,0.091l0.109,0.021l0.222,0.043l0.115,0.021l0.109,0.022l0.111,0.02
				l0.113,0.02l0.111,0.02l0.113,0.021l0.111,0.019l0.113,0.018l0.108,0.018l0.112,0.018l0.222,0.033l0.111,0.017l0.113,0.02
				l0.222,0.029l0.114,0.018l0.112,0.015l0.112,0.017l0.115,0.014l0.113,0.013l0.115,0.016l0.108,0.015l0.111,0.013l0.11,0.014
				l0.112,0.011l0.112,0.013l0.112,0.011l0.111,0.013l0.113,0.012l0.111,0.011l0.115,0.012l0.113,0.013l0.111,0.008l0.115,0.01
				l0.112,0.012l0.115,0.007l0.115,0.011l0.112,0.007l0.112,0.012l0.221,0.015l0.113,0.006l0.115,0.009l0.109,0.007l0.115,0.006
				l0.111,0.008l0.228,0.01l0.112,0.008l0.115,0.004l0.115,0.008l0.113,0.005l0.115,0.002l0.111,0.006l0.112,0.001l0.111,0.007
				l0.113,0.003l0.112,0.002l0.112,0.004l0.111,0.001l0.112,0.006l0.115,0.001h0.112l0.115,0.004h0.113l0.23,0.002h0.115h0.111
				h0.346l0.228-0.001l0.111-0.001h0.115l0.115-0.004h0.113l0.111-0.001l0.112-0.006l0.112-0.001l0.336-0.011l0.113-0.005
				l0.115-0.002l0.111-0.006l0.23-0.011l0.228-0.011l0.112-0.008l0.113-0.004l0.111-0.007l0.115-0.008l0.112-0.007l0.337-0.024
				l0.112-0.006l0.111-0.012l0.115-0.008l0.112-0.01l0.115-0.008l0.112-0.011l0.113-0.014l0.111-0.009l0.228-0.022l0.111-0.011
				l0.11-0.012l0.228-0.026l0.108-0.015l0.112-0.012l0.113-0.015l0.115-0.015l0.224-0.03l0.111-0.015l0.113-0.015l0.112-0.017
				l0.224-0.031l0.109-0.017l0.115-0.019l0.109-0.018l0.222-0.036l0.115-0.019l0.11-0.02l0.111-0.018l0.112-0.022l0.111-0.02
				l0.113-0.022l0.112-0.02l0.222-0.043l0.109-0.021l0.111-0.022l0.109-0.022l0.109-0.023l0.109-0.023l0.112-0.025l0.111-0.022
				l0.113-0.026l0.109-0.025l0.111-0.023l0.109-0.027l0.109-0.028l0.109-0.024l0.112-0.027l0.106-0.03l0.108-0.025l0.22-0.057
				l0.108-0.029l0.113-0.029l0.109-0.029l0.108-0.032l0.11-0.031l0.108-0.03l0.106-0.034l0.112-0.031l0.105-0.031l0.216-0.067
				l0.107-0.034l0.109-0.033l0.105-0.035l0.219-0.067l0.106-0.037l0.109-0.04l0.106-0.036l0.212-0.073l0.212-0.077l0.108-0.039
				l0.104-0.04l0.211-0.079l0.105-0.041l0.107-0.041l0.21-0.083l0.105-0.044l0.107-0.042l0.103-0.044l0.104-0.045l0.104-0.044
				l0.105-0.044l0.204-0.09l0.104-0.047l0.106-0.048l0.307-0.141l0.104-0.049l0.104-0.05l0.101-0.051l0.104-0.046l0.1-0.052
				l0.102-0.051l0.1-0.05l0.101-0.053l0.1-0.052l0.102-0.054l0.101-0.052l0.1-0.056l0.098-0.054l0.101-0.052l0.1-0.055l0.098-0.057
				l0.101-0.056l0.098-0.056l0.098-0.057l0.098-0.057l0.194-0.115l0.195-0.117l0.097-0.061l0.095-0.061l0.096-0.06l0.098-0.061
				l0.188-0.121l0.189-0.127l0.094-0.062l0.094-0.062l0.096-0.064l0.092-0.063l0.093-0.064l0.093-0.067l0.184-0.129l0.185-0.136
				l0.092-0.067l0.271-0.203l0.09-0.067l0.088-0.071l0.089-0.068l0.089-0.072l0.088-0.07l0.089-0.07l0.089-0.072l0.085-0.071
				l0.089-0.072l0.086-0.073l0.086-0.074l0.085-0.073l0.085-0.071l0.259-0.226l0.082-0.076l0.086-0.075l0.082-0.079l0.083-0.072
				l0.083-0.079l0.082-0.079l0.083-0.077l0.082-0.078l0.083-0.079l0.08-0.079l0.079-0.079l0.08-0.079l0.081-0.078l0.079-0.083
				l0.079-0.081l0.078-0.083l0.079-0.08l0.155-0.165l0.157-0.164l0.076-0.085l0.151-0.169l0.074-0.086l0.077-0.083l0.073-0.083
				l0.074-0.088l0.146-0.171l0.074-0.089l0.07-0.086l0.146-0.174l0.142-0.177l0.139-0.178l0.071-0.088l0.071-0.09l0.068-0.089
				l0.067-0.091l0.07-0.091l0.064-0.092l0.068-0.09l0.068-0.092l0.064-0.091l0.064-0.093l0.068-0.091l0.064-0.094l0.128-0.185
				l0.065-0.094l0.062-0.093l0.065-0.094l0.062-0.096l0.062-0.093l0.124-0.191l0.059-0.093l0.062-0.096l0.06-0.095l0.059-0.097
				l0.062-0.097l0.056-0.096l0.06-0.097l0.06-0.098l0.056-0.096l0.056-0.101l0.06-0.097l0.056-0.097l0.112-0.197l0.106-0.198
				l0.108-0.2l0.054-0.099l0.054-0.101l0.156-0.303l0.053-0.101l0.148-0.301l0.05-0.102l0.05-0.103l0.047-0.1l0.051-0.105
				l0.143-0.311l0.048-0.103l0.046-0.1l0.045-0.106l0.047-0.104l0.045-0.103l0.044-0.103l0.044-0.102l0.045-0.105l0.042-0.104
				l0.043-0.104l0.042-0.107l0.082-0.21l0.045-0.105l0.041-0.104l0.041-0.108l0.119-0.317l0.038-0.103l0.037-0.108l0.04-0.105
				l0.038-0.107l0.035-0.106l0.038-0.108l0.038-0.105l0.036-0.108l0.035-0.107l0.039-0.107l0.032-0.112l0.035-0.105l0.032-0.107
				l0.036-0.107l0.032-0.107l0.035-0.106l0.032-0.108L555.622,91l0.064-0.22l0.029-0.106l0.033-0.11l0.032-0.111l0.029-0.11
				l0.032-0.11l0.03-0.108l0.026-0.107l0.028-0.108l0.058-0.219l0.028-0.109l0.081-0.33l0.028-0.112l0.078-0.332l0.022-0.111
				l0.054-0.221l0.068-0.328l0.023-0.112l0.023-0.11l0.024-0.113l0.02-0.109l0.023-0.112l0.021-0.113l0.046-0.222l0.018-0.115
				l0.023-0.113l0.038-0.22l0.021-0.109l0.018-0.113l0.021-0.109l0.015-0.112l0.055-0.335l0.018-0.114l0.019-0.11l0.018-0.114
				l0.014-0.113l0.019-0.115l0.016-0.111l0.014-0.11l0.03-0.222l0.032-0.225l0.012-0.109l0.016-0.112l0.011-0.115l0.015-0.112
				l0.013-0.11l0.016-0.117l0.012-0.111l0.011-0.114l0.013-0.113l0.015-0.114l0.008-0.114l0.012-0.109l0.01-0.112l0.015-0.114
				l0.009-0.11l0.013-0.113l0.005-0.112l0.013-0.113l0.025-0.338l0.009-0.115l0.009-0.114l0.024-0.343l0.009-0.112l0.021-0.336
				l0.006-0.112l0.007-0.113l0.005-0.11l0.003-0.114l0.006-0.114l0.006-0.114l0.006-0.113l0.002-0.111l0.011-0.231l0.005-0.114
				l0.003-0.113l0.012-0.337l0.003-0.227l0.003-0.112l0.004-0.111l0.002-0.114v-0.113l0.004-0.114v-0.113l0.002-0.115v-0.112v-0.116
				l0.004-0.115V78.13h-14.61l-0.012,0.119l-0.012,0.115l-0.012,0.114l-0.013,0.115l-0.026,0.229l-0.035,0.339l-0.016,0.114
				l-0.014,0.113l-0.01,0.112l-0.015,0.11l-0.018,0.112l-0.012,0.11l-0.012,0.112l-0.029,0.219l-0.015,0.109l-0.018,0.11
				l-0.03,0.232l-0.018,0.112l-0.015,0.114l-0.018,0.113l-0.018,0.114l-0.018,0.113l-0.016,0.114l-0.02,0.112l-0.015,0.11
				l-0.058,0.333l-0.018,0.109l-0.019,0.11l-0.016,0.108l-0.039,0.215l-0.021,0.115l-0.024,0.114l-0.021,0.114l-0.041,0.227
				l-0.023,0.113l-0.021,0.113l-0.068,0.332l-0.021,0.111l-0.026,0.109l-0.021,0.11l-0.024,0.105l-0.025,0.111l-0.024,0.106
				l-0.023,0.108l-0.024,0.112l-0.025,0.112l-0.027,0.112l-0.03,0.114l-0.025,0.113l-0.026,0.11l-0.03,0.111l-0.055,0.22
				l-0.058,0.218l-0.029,0.107l-0.029,0.108l-0.029,0.109l-0.03,0.104l-0.029,0.107l-0.031,0.106l-0.065,0.225l-0.034,0.111
				l-0.031,0.111l-0.036,0.109l-0.036,0.108l-0.032,0.107l-0.035,0.107l-0.069,0.213l-0.075,0.211l-0.035,0.104l-0.035,0.104
				l-0.039,0.105l-0.041,0.111l-0.08,0.217l-0.04,0.107l-0.042,0.108l-0.083,0.209l-0.041,0.105l-0.045,0.102l-0.041,0.105
				l-0.048,0.101l-0.041,0.1l-0.044,0.101l-0.044,0.104l-0.05,0.107l-0.098,0.209l-0.101,0.206l-0.05,0.103l-0.05,0.102l-0.052,0.1
				l-0.05,0.1l-0.05,0.098l-0.054,0.096l-0.054,0.097l-0.056,0.099l-0.053,0.103l-0.059,0.101l-0.06,0.1l-0.059,0.097l-0.061,0.099
				l-0.055,0.094l-0.121,0.189l-0.122,0.188l-0.062,0.091l-0.065,0.091l-0.063,0.093l-0.065,0.094l-0.067,0.09l-0.072,0.087
				l-0.067,0.091l-0.071,0.086l-0.074,0.087l-0.073,0.086l-0.075,0.085l-0.075,0.084l-0.077,0.084l-0.08,0.081l-0.08,0.079
				l-0.078,0.083l-0.163,0.155l-0.083,0.078l-0.168,0.151l-0.089,0.071l-0.089,0.073l-0.086,0.071l-0.091,0.07l-0.088,0.067
				l-0.092,0.069l-0.093,0.066l-0.091,0.063l-0.095,0.067l-0.095,0.062l-0.188,0.122l-0.193,0.12l-0.1,0.057l-0.101,0.057
				l-0.094,0.053l-0.104,0.054l-0.098,0.052l-0.101,0.052l-0.103,0.049l-0.102,0.052l-0.207,0.094l-0.1,0.046l-0.103,0.047
				l-0.107,0.044l-0.105,0.042l-0.104,0.042l-0.107,0.039l-0.104,0.042l-0.104,0.04l-0.108,0.038l-0.107,0.038l-0.109,0.036
				l-0.105,0.035l-0.106,0.033l-0.11,0.034l-0.104,0.032l-0.11,0.033l-0.112,0.03l-0.109,0.031l-0.107,0.026l-0.108,0.029
				l-0.109,0.027l-0.109,0.024l-0.111,0.027l-0.225,0.051l-0.109,0.023l-0.109,0.02l-0.223,0.042l-0.11,0.021l-0.113,0.021
				l-0.111,0.019l-0.113,0.018l-0.109,0.015l-0.111,0.019l-0.112,0.014l-0.341,0.045l-0.111,0.012l-0.112,0.013l-0.109,0.013
				l-0.112,0.011l-0.343,0.031l-0.111,0.01l-0.115,0.009l-0.109,0.007l-0.113,0.007l-0.111,0.006l-0.115,0.008l-0.112,0.007
				L529.098,96l-0.118,0.002l-0.112,0.007l-0.225,0.005l-0.113,0.002l-0.223,0.004l-0.116,0.001l-0.111,0.003h-0.232l-0.229-0.004
				h-0.115l-0.225-0.005l-0.225-0.006l-0.111-0.004l-0.115-0.004l-0.115-0.005l-0.113-0.008l-0.224-0.01l-0.227-0.018l-0.11-0.009
				l-0.115-0.01l-0.224-0.02l-0.229-0.022l-0.111-0.013l-0.113-0.014l-0.108-0.014l-0.112-0.012l-0.228-0.032l-0.112-0.016
				l-0.113-0.017l-0.11-0.018l-0.109-0.018l-0.11-0.022l-0.115-0.019l-0.112-0.02l-0.108-0.021l-0.222-0.044l-0.112-0.023
				l-0.22-0.05l-0.111-0.025l-0.112-0.028l-0.109-0.026l-0.109-0.029l-0.109-0.029l-0.105-0.029l-0.109-0.029l-0.112-0.035
				l-0.11-0.031l-0.104-0.032l-0.217-0.069l-0.109-0.034l-0.105-0.04l-0.107-0.036l-0.106-0.037L521.508,95l-0.109-0.041
				l-0.104-0.041l-0.206-0.082l-0.213-0.088l-0.104-0.045l-0.104-0.048l-0.101-0.043l-0.105-0.05l-0.101-0.049l-0.101-0.051
				l-0.204-0.101l-0.102-0.055l-0.1-0.052l-0.098-0.054l-0.097-0.054l-0.198-0.115l-0.095-0.059l-0.1-0.058l-0.096-0.06
				l-0.189-0.122l-0.188-0.126l-0.096-0.066l-0.088-0.064l-0.092-0.067l-0.183-0.138l-0.089-0.066l-0.09-0.071l-0.087-0.071
				l-0.175-0.146l-0.086-0.074l-0.085-0.073l-0.169-0.154l-0.083-0.076l-0.081-0.079l-0.08-0.08l-0.083-0.078l-0.157-0.159
				l-0.079-0.084l-0.077-0.082l-0.074-0.084l-0.075-0.083l-0.078-0.087l-0.145-0.171l-0.073-0.086l-0.143-0.177l-0.133-0.179
				l-0.065-0.091l-0.065-0.093l-0.067-0.094l-0.123-0.191l-0.118-0.188l-0.06-0.097l-0.059-0.096l-0.057-0.098l-0.056-0.101
				l-0.057-0.104l-0.053-0.097l-0.054-0.096l-0.05-0.101l-0.054-0.101l-0.05-0.102l-0.05-0.103l-0.05-0.103l-0.048-0.104l-0.045-0.1
				l-0.046-0.102l-0.046-0.103l-0.043-0.103l-0.048-0.107l-0.086-0.212l-0.041-0.104l-0.04-0.103l-0.04-0.105l-0.041-0.103
				l-0.039-0.11l-0.041-0.105l-0.035-0.11l-0.074-0.216l-0.069-0.212l-0.036-0.106l-0.035-0.108l-0.034-0.107l-0.031-0.109
				l-0.032-0.111l-0.033-0.11l-0.032-0.108l-0.029-0.109l-0.061-0.214l-0.032-0.109l-0.025-0.108l-0.06-0.225l-0.025-0.111
				l-0.027-0.111l-0.027-0.107l-0.05-0.218l-0.026-0.11l-0.024-0.109l-0.023-0.113l-0.022-0.11l-0.052-0.228l-0.02-0.11l-0.023-0.11
				l-0.062-0.327l-0.021-0.112l-0.021-0.111l-0.021-0.114l-0.021-0.112l-0.019-0.114l-0.02-0.115l-0.019-0.107l-0.018-0.108
				l-0.019-0.112l-0.018-0.112l-0.018-0.11l-0.015-0.112l-0.018-0.113l-0.018-0.115l-0.016-0.112l-0.015-0.115l-0.018-0.111
				l-0.029-0.219l-0.014-0.112l-0.016-0.113l-0.026-0.223l-0.026-0.227l-0.012-0.115l-0.016-0.113l-0.012-0.114l-0.013-0.111
				l-0.011-0.11l-0.012-0.112l-0.013-0.111l-0.008-0.112l-0.012-0.111l-0.021-0.227l-0.033-0.343l-0.009-0.115l-0.016-0.222
				l-0.011-0.112l-0.006-0.112l-0.009-0.112l-0.009-0.112l-0.009-0.115l-0.007-0.111l-0.014-0.228l-0.009-0.114l-0.007-0.116
				l-0.006-0.111l-0.006-0.112l-0.009-0.111l-0.011-0.224l-0.015-0.34l-0.007-0.115l-0.003-0.112l-0.006-0.115l-0.006-0.115
				l-0.003-0.115l-0.005-0.112l-0.004-0.111l-0.003-0.11l-0.009-0.225l-0.003-0.114l-0.003-0.113l-0.003-0.113l-0.004-0.115
				l-0.002-0.112l-0.006-0.23v-0.115l-0.004-0.113l-0.003-0.112v-0.11l-0.003-0.111l-0.002-0.226l-0.004-0.453v-0.229l-0.002-0.115
				v-7.598l0.002-0.113v-0.227V65.65v-0.114v-0.11v-0.111l0.004-0.116v-0.115l0.002-0.115v-0.113v-0.112l0.003-0.114v-0.11v-0.114
				l0.003-0.11l0.004-0.114v-0.116l0.003-0.115v-0.114l0.003-0.112l0.002-0.224l0.007-0.222l0.003-0.115l0.003-0.116l0.003-0.114
				v-0.115l0.006-0.113l0.003-0.113l0.004-0.111l0.002-0.111l0.003-0.111l0.003-0.117l0.01-0.229l0.002-0.114l0.003-0.112
				l0.007-0.11l0.005-0.111l0.003-0.114l0.007-0.116l0.006-0.115l0.008-0.227l0.006-0.111l0.006-0.111l0.006-0.111l0.007-0.116
				l0.005-0.115l0.016-0.228l0.006-0.111l0.007-0.11l0.007-0.111l0.011-0.116l0.008-0.115l0.01-0.115l0.004-0.111l0.011-0.11
				l0.012-0.109l0.002-0.119l0.006-0.116l0.016-0.231l0.008-0.115l0.007-0.115l0.009-0.112l0.007-0.114l0.007-0.113l0.011-0.113
				l0.017-0.224l0.018-0.223l0.01-0.11l0.008-0.109l0.012-0.11l0.009-0.108l0.025-0.233l0.011-0.115l0.012-0.116l0.012-0.115
				l0.012-0.114l0.011-0.114l0.016-0.113l0.013-0.111l0.012-0.113l0.028-0.222l0.016-0.109l0.012-0.11l0.03-0.218l0.018-0.109
				l0.015-0.117l0.018-0.115l0.014-0.114l0.039-0.229l0.018-0.112l0.018-0.114l0.019-0.111l0.041-0.221l0.018-0.11l0.041-0.218
				l0.042-0.215l0.02-0.112l0.024-0.116l0.023-0.115l0.023-0.113l0.024-0.112l0.026-0.112l0.047-0.223l0.026-0.108l0.027-0.11
				l0.05-0.215l0.029-0.106l0.026-0.105l0.03-0.109l0.059-0.227l0.065-0.223l0.032-0.109l0.065-0.217l0.031-0.107l0.032-0.106
				l0.036-0.104l0.036-0.106l0.035-0.103l0.036-0.105l0.041-0.11l0.038-0.111l0.041-0.109l0.042-0.107l0.038-0.107l0.042-0.105
				l0.043-0.104l0.042-0.105l0.086-0.204l0.044-0.1l0.048-0.1l0.05-0.106l0.047-0.106l0.05-0.104l0.054-0.104l0.05-0.101
				l0.052-0.101l0.055-0.098l0.05-0.099l0.058-0.095l0.053-0.097l0.056-0.095l0.06-0.1l0.062-0.1l0.062-0.099l0.059-0.095
				l0.065-0.094l0.062-0.094l0.065-0.091l0.065-0.091l0.063-0.088l0.069-0.087l0.139-0.179l0.069-0.087l0.074-0.089l0.074-0.085
				l0.074-0.086l0.07-0.085l0.077-0.084l0.077-0.085l0.076-0.083l0.077-0.082l0.08-0.082l0.076-0.081l0.08-0.081l0.083-0.079
				l0.08-0.079l0.082-0.078l0.083-0.078l0.168-0.152l0.085-0.075l0.087-0.074l0.085-0.072l0.089-0.073l0.088-0.071l0.09-0.07
				l0.088-0.07l0.089-0.069l0.091-0.066l0.092-0.069l0.091-0.065l0.096-0.066l0.091-0.064l0.095-0.063l0.095-0.062l0.188-0.121
				l0.095-0.061l0.098-0.059l0.098-0.058l0.098-0.058l0.101-0.057l0.098-0.054l0.098-0.056l0.103-0.054l0.1-0.052l0.101-0.052
				l0.102-0.05l0.1-0.049l0.205-0.097l0.206-0.093l0.104-0.046l0.105-0.044l0.207-0.087l0.106-0.041l0.106-0.041l0.106-0.041
				l0.106-0.04l0.106-0.038l0.104-0.037l0.107-0.037l0.217-0.07l0.109-0.034l0.215-0.065l0.108-0.032l0.109-0.03l0.106-0.029
				l0.11-0.029l0.111-0.028l0.108-0.027l0.113-0.029l0.11-0.025l0.108-0.025l0.109-0.025l0.109-0.022l0.111-0.024l0.112-0.021
				l0.226-0.043l0.333-0.058l0.109-0.018l0.112-0.018l0.112-0.016l0.115-0.016l0.111-0.016l0.223-0.027l0.115-0.015l0.108-0.012
				l0.341-0.034l0.115-0.011l0.111-0.008l0.108-0.009l0.115-0.008l0.113-0.006l0.112-0.008l0.228-0.012l0.111-0.006l0.115-0.004
				l0.112-0.003l0.112-0.003l0.113-0.004l0.227-0.005l0.113-0.001l0.114,0h0.23l0.233,0.001l0.115,0.002l0.115,0.001l0.11,0.003
				l0.229,0.007l0.225,0.008l0.115,0.006l0.109,0.006l0.109,0.004l0.111,0.007l0.109,0.007l0.119,0.009l0.115,0.009l0.111,0.009
				l0.23,0.02l0.112,0.013l0.112,0.01l0.225,0.025l0.112,0.014l0.219,0.03l0.108,0.014l0.115,0.015l0.228,0.038l0.113,0.018
				l0.115,0.02l0.109,0.021l0.221,0.043l0.112,0.021l0.109,0.021l0.109,0.024l0.109,0.023l0.105,0.025l0.113,0.026l0.111,0.028
				l0.112,0.029l0.222,0.058l0.106,0.031l0.109,0.032l0.109,0.032l0.106,0.033l0.106,0.034l0.209,0.07l0.11,0.038l0.109,0.039
				l0.108,0.039l0.21,0.082l0.105,0.042l0.106,0.043l0.206,0.088l0.102,0.046l0.1,0.045l0.105,0.049l0.102,0.05l0.104,0.052
				l0.101,0.051l0.102,0.053l0.1,0.054l0.101,0.055l0.094,0.055l0.097,0.057l0.193,0.115l0.095,0.062l0.098,0.062l0.093,0.063
				l0.096,0.063l0.092,0.065l0.093,0.065l0.09,0.067l0.091,0.068l0.09,0.069l0.088,0.069l0.089,0.072l0.086,0.074l0.085,0.074
				l0.086,0.076l0.083,0.075l0.083,0.078l0.082,0.078l0.08,0.08l0.08,0.08l0.155,0.164l0.075,0.082l0.075,0.082l0.078,0.085
				l0.069,0.085l0.075,0.086l0.147,0.174l0.071,0.088l0.069,0.09l0.072,0.09l0.067,0.09l0.137,0.179l0.064,0.091l0.065,0.091
				l0.065,0.093l0.129,0.188l0.062,0.095l0.062,0.096l0.064,0.096l0.06,0.095l0.059,0.094l0.057,0.095l0.059,0.097l0.057,0.097
				l0.059,0.098l0.112,0.197l0.058,0.101l0.052,0.101l0.057,0.101l0.05,0.1l0.054,0.098l0.05,0.099l0.054,0.101l0.098,0.202
				l0.05,0.101l0.048,0.104l0.047,0.105l0.05,0.104l0.044,0.104l0.05,0.106l0.046,0.102l0.041,0.103l0.046,0.103l0.042,0.103
				l0.041,0.104l0.045,0.104l0.041,0.106l0.125,0.318l0.037,0.108l0.043,0.108l0.037,0.109l0.038,0.104l0.109,0.316l0.035,0.108
				l0.036,0.106l0.035,0.108l0.036,0.107l0.032,0.109l0.067,0.221l0.065,0.221l0.032,0.106l0.029,0.106l0.029,0.108l0.03,0.107
				l0.092,0.326l0.025,0.11l0.03,0.111l0.027,0.111l0.028,0.111l0.08,0.336l0.05,0.215l0.027,0.108l0.023,0.109l0.047,0.22
				l0.048,0.222l0.021,0.111l0.026,0.112l0.021,0.112l0.021,0.113l0.024,0.112l0.021,0.115l0.076,0.038h14.616l0.036-0.074v-0.114
				v-0.343l-0.003-0.114l-0.009-0.452l-0.01-0.336l-0.005-0.112l-0.004-0.112l-0.006-0.115l-0.008-0.229l-0.007-0.112l-0.006-0.115
				l-0.005-0.114l-0.015-0.226l-0.011-0.112l-0.005-0.113l-0.015-0.224l-0.009-0.111l-0.012-0.111l-0.019-0.23l-0.018-0.226
				l-0.034-0.339l-0.012-0.113l-0.04-0.336L556.711,51l-0.012-0.112l-0.015-0.112l-0.029-0.226l-0.014-0.112l-0.016-0.114
				l-0.019-0.112l-0.014-0.113l-0.015-0.111l-0.021-0.113l-0.014-0.11l-0.018-0.112l-0.019-0.109l-0.021-0.111l-0.017-0.112
				l-0.039-0.224l-0.042-0.224l-0.02-0.114l-0.023-0.11l-0.021-0.112l-0.022-0.11l-0.021-0.111l-0.024-0.111l-0.02-0.111
				l-0.026-0.109l-0.023-0.108l-0.024-0.112l-0.026-0.112l-0.023-0.111l-0.026-0.11l-0.027-0.109l-0.029-0.112l-0.025-0.11
				l-0.028-0.108l-0.025-0.11l-0.057-0.218l-0.062-0.217l-0.029-0.11l-0.032-0.11l-0.032-0.108l-0.029-0.11l-0.033-0.108
				l-0.032-0.109l-0.032-0.107l-0.035-0.109l-0.032-0.107l-0.036-0.107l-0.033-0.107l-0.034-0.107l-0.075-0.214l-0.112-0.322
				l-0.076-0.214l-0.039-0.106l-0.079-0.21l-0.041-0.106l-0.042-0.104l-0.041-0.105l-0.041-0.105l-0.045-0.106l-0.044-0.104
				l-0.041-0.106l-0.089-0.208l-0.047-0.104l-0.045-0.103l-0.092-0.208l-0.047-0.101l-0.095-0.207l-0.05-0.102l-0.151-0.307
				l-0.047-0.1l-0.054-0.102l-0.05-0.1l-0.053-0.101l-0.104-0.2l-0.057-0.1l-0.053-0.1l-0.054-0.099l-0.052-0.099l-0.058-0.099
				l-0.115-0.197l-0.056-0.098l-0.115-0.194l-0.06-0.096l-0.058-0.098l-0.119-0.192l-0.062-0.095l-0.06-0.095l-0.062-0.096
				l-0.062-0.095l-0.062-0.094l-0.065-0.094l-0.062-0.094l-0.065-0.093l-0.062-0.094l-0.065-0.092l-0.065-0.094l-0.067-0.092
				l-0.063-0.093l-0.069-0.089l-0.068-0.093l-0.135-0.181l-0.067-0.09l-0.069-0.091l-0.07-0.089L551.605,38l-0.143-0.177
				l-0.07-0.087l-0.074-0.087l-0.074-0.086l-0.069-0.087L551.1,37.39l-0.076-0.085l-0.074-0.086l-0.072-0.084l-0.078-0.084
				l-0.15-0.167l-0.078-0.084l-0.075-0.083l-0.079-0.082l-0.078-0.082l-0.079-0.082l-0.077-0.082l-0.079-0.079l-0.08-0.082
				l-0.083-0.08l-0.08-0.081l-0.08-0.079l-0.241-0.234l-0.248-0.231l-0.086-0.077l-0.086-0.078l-0.083-0.075l-0.085-0.074
				l-0.085-0.076l-0.086-0.074l-0.086-0.074l-0.089-0.073l-0.085-0.075l-0.086-0.071l-0.086-0.074l-0.089-0.072l-0.088-0.072
				l-0.086-0.07l-0.089-0.072l-0.177-0.141l-0.089-0.07l-0.181-0.139l-0.092-0.068l-0.088-0.068l-0.091-0.068l-0.092-0.068
				l-0.089-0.069l-0.092-0.065l-0.278-0.197l-0.091-0.066l-0.277-0.193l-0.28-0.19l-0.098-0.062l-0.096-0.063l-0.282-0.183
				l-0.098-0.06l-0.095-0.06l-0.098-0.06l-0.097-0.059l-0.098-0.058l-0.095-0.06l-0.098-0.058l-0.1-0.058l-0.096-0.057l-0.101-0.058
				l-0.098-0.056l-0.295-0.166l-0.097-0.055l-0.102-0.054l-0.1-0.053l-0.101-0.054l-0.098-0.052l-0.103-0.054l-0.098-0.052
				l-0.104-0.052l-0.302-0.153l-0.104-0.049l-0.1-0.05l-0.204-0.096l-0.104-0.05l-0.104-0.049l-0.204-0.094l-0.104-0.048
				l-0.104-0.046l-0.206-0.091l-0.104-0.045l-0.416-0.177l-0.106-0.042l-0.107-0.042l-0.104-0.043l-0.104-0.042l-0.316-0.122
				l-0.104-0.04l-0.108-0.04l-0.104-0.039l-0.212-0.078l-0.109-0.037l-0.107-0.039l-0.104-0.038l-0.11-0.036l-0.106-0.037
				l-0.107-0.036l-0.108-0.036l-0.106-0.034l-0.106-0.036l-0.106-0.034l-0.112-0.034l-0.105-0.034l-0.328-0.099l-0.109-0.032
				l-0.216-0.063l-0.109-0.031l-0.109-0.03l-0.108-0.03l-0.215-0.059l-0.332-0.084l-0.109-0.028l-0.111-0.029l-0.109-0.025
				l-0.109-0.027l-0.109-0.026l-0.109-0.025l-0.112-0.026l-0.109-0.026l-0.109-0.022l-0.111-0.025l-0.113-0.024l-0.109-0.022
				l-0.111-0.024l-0.109-0.023l-0.112-0.022l-0.112-0.021l-0.108-0.022l-0.113-0.021l-0.334-0.062l-0.108-0.019l-0.112-0.02
				l-0.113-0.019l-0.111-0.019l-0.334-0.055l-0.115-0.015l-0.112-0.019l-0.109-0.017l-0.111-0.016l-0.113-0.016l-0.109-0.015
				l-0.336-0.044l-0.115-0.016l-0.113-0.013l-0.226-0.027l-0.225-0.025l-0.113-0.012l-0.112-0.011l-0.336-0.035l-0.112-0.01
				l-0.113-0.01l-0.115-0.01l-0.108-0.008l-0.115-0.011l-0.115-0.01l-0.111-0.007l-0.115-0.009l-0.226-0.016l-0.337-0.021
				l-0.225-0.014l-0.227-0.011l-0.112-0.005l-0.115-0.005l-0.343-0.014l-0.448-0.013l-0.113-0.001l-0.111-0.003l-0.115-0.002
				l-0.11-0.002l-0.118-0.001l-0.111,0l-0.113-0.002h-0.115l-0.111,0H527.648z"/>
		</g>
		<g>
			<g>
				<g>
					<g>
						<path fill="#E0393F" d="M-35.92,51.743h7.323c0,5.146-1.287,9.101-3.86,11.864c-2.573,2.763-6.207,4.144-10.899,4.144
							c-10.332,0-15.498-6.074-15.498-18.223v-3.406c0-9.576,2.648-15.574,7.947-17.996c2.083-0.985,4.599-1.475,7.551-1.475
							c4.313,0,7.824,1.182,10.529,3.547c2.706,2.366,4.059,5.782,4.059,10.247h-7.379c-0.416-2.232-1.154-3.917-2.214-5.053
							c-1.06-1.135-2.726-1.702-4.995-1.702c-2.649,0-4.618,0.832-5.904,2.497c-0.908,1.173-1.438,3.178-1.59,6.018
							c-0.075,0.908-0.114,2.138-0.114,3.689v3.521c0,4.352,0.606,7.323,1.817,8.913c1.249,1.589,3.188,2.383,5.818,2.383
							c2.631,0,4.447-0.728,5.451-2.186C-36.876,57.069-36.224,54.809-35.92,51.743z"/>
						<path fill="#E0393F" d="M7.734,45.328v3.066c0,6.773-1.277,11.694-3.833,14.759c-2.553,3.065-6.65,4.598-12.289,4.598
							c-5.639,0-9.717-1.533-12.234-4.598s-3.775-8.042-3.775-14.929v-2.953c0-6.283,1.277-10.956,3.832-14.021
							c2.556-3.065,6.604-4.598,12.148-4.598c5.545,0,9.623,1.551,12.234,4.655C6.43,34.409,7.734,39.083,7.734,45.328L7.734,45.328
							z M-0.156,48.224v-2.101c0-3.633-0.454-6.529-1.362-8.686c-1.06-2.498-3.331-3.746-6.812-3.746
							c-3.52,0-5.809,1.249-6.868,3.746c-0.872,2.043-1.306,4.939-1.306,8.686v2.101c0,4.881,0.681,8.174,2.042,9.877
							c0.531,0.718,1.316,1.334,2.357,1.845c1.041,0.511,2.29,0.766,3.747,0.766c1.457,0,2.696-0.246,3.719-0.738
							c1.021-0.492,1.816-1.098,2.383-1.816c0.568-0.72,1.003-1.666,1.307-2.839C-0.421,53.465-0.156,51.098-0.156,48.224z"/>
						<path fill="#E0393F" d="M45.146,47.03l0.056,4.373c-0.152,2.762-0.492,5.089-1.022,6.982c-0.529,1.892-1.57,3.614-3.122,5.166
							c-2.574,2.575-6.321,3.861-11.241,3.861c-5.79,0-9.764-0.767-11.921-2.3c-2.158-1.533-3.236-4.304-3.236-8.315V26.992h15.725
							c4.541,0,8.099,1.287,10.673,3.859c2.081,2.082,3.311,4.618,3.689,7.607C45.013,40.577,45.146,43.435,45.146,47.03z
							 M35.551,57.874c0.719-0.871,1.183-2.072,1.392-3.606c0.208-1.533,0.312-3.925,0.312-7.18s-0.104-5.611-0.312-7.067
							c-0.209-1.458-0.673-2.621-1.392-3.493c-1.362-1.664-3.331-2.497-5.903-2.497h-7.097v22.367c0,1.514,0.511,2.553,1.534,3.122
							c1.021,0.568,2.847,0.852,5.478,0.852C32.193,60.372,34.189,59.539,35.551,57.874z"/>
						<path fill="#E0393F" d="M78.695,67.411H64.391c-4.542,0-7.731-0.787-9.566-2.357c-1.836-1.57-2.753-4.343-2.753-8.315V26.992
							h26.624v7.039H59.961v9.48h13.114l-0.567,7.04H59.961v5.621c0,1.588,0.36,2.687,1.079,3.292
							c0.719,0.606,2.025,0.908,3.917,0.908h13.738V67.411z"/>
						<path fill="#E0393F" d="M117.015,67.411h-9.14l-7.891-14.988h-5.676v14.988h-7.892V35.677c0-3.027,0.7-5.233,2.101-6.613
							c1.4-1.382,3.747-2.072,7.039-2.072h6.699c4.013,0,7.201,1.22,9.566,3.661c2.366,2.442,3.548,5.535,3.548,9.281
							c0,2.726-0.709,5.082-2.129,7.068c-1.418,1.986-3.169,3.359-5.25,4.116L117.015,67.411z M101.743,45.839
							c1.666,0,3.038-0.578,4.117-1.731c1.078-1.155,1.617-2.593,1.617-4.314c0-1.723-0.521-3.112-1.56-4.172
							c-1.042-1.062-2.433-1.59-4.174-1.59h-3.916c-2.347,0-3.52,1.192-3.52,3.576v8.232H101.743z"/>
						<path fill="#E0393F" d="M150.792,55.488c0,3.823-1.4,6.823-4.201,8.999c-2.801,2.176-6.378,3.264-10.729,3.264
							c-3.444,0-6.774-0.946-9.992-2.838c-1.589-0.984-2.895-2.374-3.917-4.172c-1.022-1.798-1.533-3.852-1.533-6.159l7.153-0.341
							c0,2.044,0.87,3.634,2.611,4.768c1.74,1.137,3.671,1.704,5.79,1.704c4.731,0,7.097-1.665,7.097-4.996
							c0-2.725-1.608-4.333-4.825-4.825l-6.585-0.682c-3.293-0.492-5.904-1.664-7.834-3.52c-1.93-1.854-2.895-4.522-2.895-8.004
							c0-3.481,1.381-6.359,4.144-8.628c2.763-2.271,6.255-3.406,10.474-3.406c4.22,0,7.617,1.069,10.19,3.207
							c2.573,2.139,3.859,4.892,3.859,8.259l-7.039,0.341c-0.643-3.293-2.857-4.938-6.642-4.938c-2.308,0-4.115,0.492-5.42,1.476
							c-1.307,0.985-1.959,2.148-1.959,3.492c0,1.343,0.473,2.402,1.419,3.178c0.947,0.777,2.12,1.259,3.52,1.448l6.472,0.682
							C147.177,44.779,150.792,48.676,150.792,55.488z"/>
						<path fill="#E0393F" d="M177.53,51.743h7.323c0,5.146-1.288,9.101-3.861,11.864c-2.572,2.763-6.206,4.144-10.899,4.144
							c-10.331,0-15.499-6.074-15.499-18.223v-3.406c0-9.576,2.65-15.574,7.948-17.996c2.083-0.985,4.598-1.475,7.551-1.475
							c4.314,0,7.825,1.182,10.53,3.547c2.707,2.366,4.061,5.782,4.061,10.247h-7.38c-0.417-2.232-1.155-3.917-2.214-5.053
							c-1.059-1.135-2.726-1.702-4.996-1.702c-2.648,0-4.617,0.832-5.904,2.497c-0.908,1.173-1.438,3.178-1.59,6.018
							c-0.075,0.908-0.113,2.138-0.113,3.689v3.521c0,4.352,0.605,7.323,1.817,8.913c1.248,1.589,3.188,2.383,5.817,2.383
							c2.631,0,4.448-0.728,5.451-2.186C176.574,57.069,177.226,54.809,177.53,51.743L177.53,51.743z"/>
						<polygon fill="#E0393F" points="221.575,67.412 213.699,67.412 213.699,51.069 198.883,51.069 198.883,67.412 190.989,67.412 
							190.989,26.985 198.883,26.985 198.883,44.071 213.699,44.071 213.699,26.985 221.575,26.985 						"/>
						<path fill="#E0393F" d="M260.07,45.328v3.066c0,6.773-1.278,11.694-3.832,14.759c-2.553,3.065-6.651,4.598-12.29,4.598
							s-9.716-1.533-12.233-4.598c-2.517-3.065-3.775-8.042-3.775-14.929v-2.953c0-6.283,1.277-10.956,3.832-14.021
							c2.555-3.065,6.604-4.598,12.149-4.598c5.545,0,9.62,1.551,12.232,4.655C258.765,34.409,260.07,39.083,260.07,45.328
							L260.07,45.328z M252.18,48.224v-2.101c0-3.633-0.454-6.529-1.36-8.686c-1.062-2.498-3.331-3.746-6.812-3.746
							c-3.521,0-5.812,1.249-6.87,3.746c-0.871,2.043-1.307,4.939-1.307,8.686v2.101c0,4.881,0.682,8.174,2.044,9.877
							c0.531,0.718,1.316,1.334,2.356,1.845c1.042,0.511,2.29,0.766,3.747,0.766c1.455,0,2.695-0.246,3.718-0.738
							s1.816-1.098,2.384-1.816c0.568-0.72,1.004-1.666,1.307-2.839C251.916,53.465,252.18,51.098,252.18,48.224L252.18,48.224z"/>
						<path fill="#E0393F" d="M296.632,45.328v3.066c0,6.773-1.279,11.694-3.834,14.759s-6.65,4.598-12.292,4.598
							c-5.637,0-9.717-1.533-12.232-4.598c-2.517-3.065-3.773-8.042-3.773-14.929v-2.953c0-6.283,1.275-10.956,3.831-14.021
							c2.555-3.065,6.605-4.598,12.149-4.598c5.542,0,9.622,1.551,12.231,4.655C295.326,34.409,296.632,39.083,296.632,45.328
							L296.632,45.328z M288.737,48.224v-2.101c0-3.633-0.453-6.529-1.361-8.686c-1.058-2.498-3.332-3.746-6.811-3.746
							c-3.521,0-5.81,1.249-6.871,3.746c-0.869,2.043-1.305,4.939-1.305,8.686v2.101c0,4.881,0.681,8.174,2.044,9.877
							c0.531,0.718,1.314,1.334,2.357,1.845c1.038,0.511,2.288,0.766,3.745,0.766s2.696-0.246,3.718-0.738s1.817-1.098,2.387-1.816
							c0.565-0.72,1.001-1.666,1.305-2.839C288.474,53.465,288.737,51.098,288.737,48.224z"/>
						<path fill="#E0393F" d="M328.477,67.411h-12.035c-4.542,0-7.824-0.88-9.849-2.64c-2.026-1.759-3.036-4.626-3.036-8.6V26.992
							h7.888v29.179c0,1.588,0.363,2.687,1.082,3.292c0.717,0.606,2.023,0.908,3.915,0.908h12.035V67.411z"/>
						<path fill="#E0393F" d="M342.019,59.774c0,0,0.146,0.147,0.437,0.441c0.295,0.292,0.439,1.387,0.439,3.278
							c0,1.892-0.292,3.141-0.876,3.747c-0.588,0.605-1.825,0.907-3.722,0.907c-1.891,0-3.139-0.302-3.745-0.907
							c-0.605-0.606-0.906-1.855-0.906-3.747c0-1.892,0.301-3.132,0.906-3.719c0.606-0.586,1.854-0.879,3.745-0.879
							C340.189,58.896,341.431,59.188,342.019,59.774L342.019,59.774z"/>
						<path fill="#E0393F" d="M379.626,26.992L366.909,65.14c-0.683,1.741-1.89,2.611-3.633,2.611c-1.816,0-3.066-0.871-3.748-2.611
							l-12.546-38.148h8.175l8.119,26.341l8.119-26.341H379.626z"/>
						<path fill="#E0393F" d="M416.014,26.992v36.331c0,1.249-0.378,2.318-1.135,3.208c-0.755,0.889-1.648,1.333-2.668,1.333
							c-2.611,0-4.751-1.514-6.416-4.542l-13.964-21.856v25.945h-7.89V26.992h7.604l16.577,26.453V26.992H416.014z"/>
					</g>
					<g>
						<path fill="#E0393F" d="M-106.342,74.373c189.947-4.208,379.896-4.208,569.843,0C273.554,78.583,83.605,78.583-106.342,74.373
							z"/>
					</g>
				</g>
				<g>
					<path fill="#E0393F" d="M-40.564,98.989l0.034,2.625c-0.091,1.656-0.294,3.054-0.612,4.188
						c-0.319,1.138-0.943,2.169-1.874,3.101c-1.544,1.544-3.792,2.316-6.744,2.316c-3.475,0-5.858-0.461-7.153-1.379
						c-1.295-0.921-1.941-2.583-1.941-4.99V86.967h9.434c2.725,0,4.86,0.771,6.404,2.317c1.249,1.247,1.986,2.771,2.214,4.563
						C-40.644,95.122-40.564,96.834-40.564,98.989z M-46.321,105.496c0.432-0.521,0.709-1.243,0.834-2.163
						c0.125-0.919,0.188-2.354,0.188-4.308c0-1.954-0.062-3.368-0.188-4.241c-0.125-0.875-0.402-1.572-0.834-2.095
						c-0.818-1-1.999-1.499-3.542-1.499h-4.258v13.418c0,0.91,0.306,1.535,0.92,1.875c0.613,0.342,1.708,0.512,3.287,0.512
						C-48.336,106.996-47.139,106.494-46.321,105.496L-46.321,105.496z"/>
					<path fill="#E0393F" d="M-18.293,111.219h-8.584c-2.724,0-4.638-0.47-5.739-1.413c-1.101-0.941-1.651-2.608-1.651-4.989v-17.85
						h15.975v4.224h-11.241v5.687h7.868l-0.34,4.223h-7.528v3.375c0,0.954,0.216,1.611,0.647,1.975
						c0.432,0.363,1.215,0.546,2.351,0.546h8.243V111.219z"/>
					<path fill="#E0393F" d="M7.552,86.967l-7.629,22.891c-0.409,1.044-1.135,1.565-2.18,1.565c-1.09,0-1.839-0.521-2.247-1.565
						l-7.529-22.891h4.905l4.871,15.806l4.871-15.806H7.552z"/>
					<path fill="#E0393F" d="M29.788,111.219h-8.583c-2.726,0-4.638-0.47-5.74-1.413c-1.101-0.941-1.652-2.608-1.652-4.989v-17.85
						h15.974v4.224h-11.24v5.687h7.869l-0.342,4.223h-7.527v3.375c0,0.954,0.216,1.611,0.647,1.975
						c0.432,0.363,1.215,0.546,2.351,0.546h8.242V111.219z"/>
					<path fill="#E0393F" d="M51.001,111.219h-7.221c-2.724,0-4.694-0.527-5.908-1.584c-1.215-1.055-1.822-2.773-1.822-5.159V86.967
						h4.734v17.509c0,0.954,0.216,1.611,0.646,1.975c0.433,0.363,1.216,0.546,2.35,0.546h7.221V111.219z"/>
					<path fill="#E0393F" d="M76.543,97.969v1.841c0,4.063-0.767,7.017-2.3,8.854s-3.992,2.759-7.374,2.759
						c-3.384,0-5.831-0.921-7.34-2.759c-1.511-1.838-2.266-4.824-2.266-8.959v-1.769c0-3.769,0.767-6.573,2.299-8.413
						c1.533-1.839,3.963-2.76,7.289-2.76c3.328,0,5.774,0.93,7.342,2.792C75.759,91.417,76.543,94.223,76.543,97.969z
						 M71.809,99.705v-1.259c0-2.179-0.273-3.917-0.817-5.211c-0.637-1.499-1.999-2.249-4.088-2.249c-2.112,0-3.485,0.75-4.12,2.249
						c-0.523,1.227-0.784,2.963-0.784,5.211v1.259c0,2.93,0.409,4.905,1.226,5.928c0.317,0.431,0.789,0.801,1.413,1.108
						c0.624,0.305,1.373,0.456,2.249,0.456c0.874,0,1.617-0.143,2.23-0.439c0.614-0.296,1.09-0.659,1.43-1.091
						c0.341-0.432,0.603-0.999,0.784-1.703C71.648,102.853,71.809,101.434,71.809,99.705z"/>
					<path fill="#E0393F" d="M98.115,89.062c0,0,0.349,0.349,1.047,1.049c0.698,0.697,1.047,2.397,1.047,5.098
						c0,2.704-0.698,4.752-2.094,6.149c-1.397,1.397-3.366,2.094-5.91,2.094h-4.666v7.767h-4.734V86.967h9.4
						C94.749,86.967,96.717,87.665,98.115,89.062z M95.475,95.209c0-2.676-1.169-4.018-3.509-4.018h-4.428v8.004h4.428
						c1.135,0,2.004-0.306,2.606-0.919C95.173,97.663,95.475,96.64,95.475,95.209z"/>
					<polygon fill="#E0393F" points="111.202,111.214 106.473,111.214 106.473,86.958 111.202,86.958 					"/>
					<path fill="#E0393F" d="M136.711,86.967v21.8c0,0.749-0.227,1.392-0.682,1.925c-0.454,0.534-0.987,0.8-1.6,0.8
						c-1.567,0-2.85-0.906-3.849-2.725l-8.379-13.114v15.566h-4.734V86.967h4.563l9.946,15.874V86.967H136.711z"/>
					<path fill="#E0393F" d="M142.972,99.81v-2.999c0-3.156,0.828-5.62,2.487-7.392c1.658-1.771,3.951-2.657,6.88-2.657
						c2.929,0,5.279,0.886,7.051,2.657c1.249,1.251,1.873,3.123,1.873,5.62h-4.427c0-2.702-1.442-4.054-4.326-4.054
						c-0.863,0-1.595,0.167-2.198,0.496c-0.601,0.328-1.05,0.709-1.346,1.14c-0.295,0.432-0.521,1.069-0.68,1.908
						c-0.159,0.842-0.25,1.545-0.272,2.111c-0.023,0.569-0.034,1.329-0.034,2.282c0,0.953,0.005,1.594,0.017,1.926
						c0.011,0.328,0.045,0.862,0.103,1.599c0.057,0.74,0.147,1.268,0.272,1.586c0.125,0.317,0.306,0.726,0.545,1.226
						c0.238,0.499,0.539,0.85,0.902,1.056c0.931,0.59,1.987,0.883,3.167,0.883c1.975,0,3.372-0.836,4.189-2.518v-1.635h-2.928v-3.95
						h6.982v7.321c-0.705,1.658-1.817,2.905-3.337,3.747c-1.521,0.841-3.248,1.26-5.178,1.26c-3.429,0-5.909-0.958-7.442-2.878
						C143.739,106.626,142.972,103.715,142.972,99.81z"/>
					<rect x="167.534" y="86.958" fill="#E0393F" width="11.821" height="0.041"/>
					<path fill="#E0393F" d="M203.9,98.989l0.035,2.625c-0.092,1.656-0.296,3.054-0.615,4.188c-0.317,1.138-0.941,2.169-1.873,3.101
						c-1.544,1.544-3.791,2.316-6.743,2.316c-3.474,0-5.858-0.461-7.153-1.379c-1.293-0.921-1.942-2.583-1.942-4.99V86.967h9.436
						c2.726,0,4.859,0.771,6.403,2.317c1.251,1.247,1.986,2.771,2.215,4.563C203.821,95.122,203.9,96.834,203.9,98.989z
						 M198.145,105.496c0.432-0.521,0.709-1.243,0.834-2.163c0.125-0.919,0.188-2.354,0.188-4.308c0-1.954-0.062-3.368-0.188-4.241
						c-0.125-0.875-0.402-1.572-0.834-2.095c-0.818-1-1.999-1.499-3.542-1.499h-4.258v13.418c0,0.91,0.307,1.535,0.919,1.875
						c0.613,0.342,1.709,0.512,3.288,0.512C196.129,106.996,197.326,106.494,198.145,105.496L198.145,105.496z"/>
					<path fill="#E0393F" d="M226.172,111.219h-8.585c-2.724,0-4.638-0.47-5.739-1.413c-1.1-0.941-1.652-2.608-1.652-4.989v-17.85
						h15.977v4.224h-11.241v5.687h7.868l-0.342,4.223h-7.526v3.375c0,0.954,0.216,1.611,0.647,1.975
						c0.43,0.363,1.215,0.546,2.35,0.546h8.244V111.219z"/>
					<path fill="#E0393F" d="M252.018,86.967l-7.63,22.891c-0.409,1.044-1.135,1.565-2.181,1.565c-1.091,0-1.839-0.521-2.249-1.565
						l-7.526-22.891h4.905l4.87,15.806l4.872-15.806H252.018z"/>
					<path fill="#E0393F" d="M274.253,111.219h-8.581c-2.727,0-4.641-0.47-5.742-1.413c-1.099-0.941-1.651-2.608-1.651-4.989v-17.85
						h15.975v4.224h-11.239v5.687h7.868l-0.343,4.223h-7.525v3.375c0,0.954,0.215,1.611,0.646,1.975
						c0.433,0.363,1.215,0.546,2.351,0.546h8.242V111.219z"/>
					<path fill="#E0393F" d="M295.468,111.219h-7.221c-2.725,0-4.696-0.527-5.913-1.584c-1.213-1.055-1.82-2.773-1.82-5.159V86.967
						h4.735v17.509c0,0.954,0.215,1.611,0.646,1.975c0.435,0.363,1.215,0.546,2.353,0.546h7.221V111.219z"/>
					<path fill="#E0393F" d="M321.008,97.969v1.841c0,4.063-0.768,7.017-2.298,8.854c-1.535,1.838-3.992,2.759-7.374,2.759
						c-3.385,0-5.833-0.921-7.343-2.759c-1.508-1.838-2.265-4.824-2.265-8.959v-1.769c0-3.769,0.768-6.573,2.298-8.413
						c1.535-1.839,3.964-2.76,7.288-2.76c3.329,0,5.777,0.93,7.343,2.792C320.226,91.417,321.008,94.223,321.008,97.969
						L321.008,97.969z M316.273,99.705v-1.259c0-2.179-0.271-3.917-0.816-5.211c-0.637-1.499-2.001-2.249-4.088-2.249
						c-2.111,0-3.487,0.75-4.121,2.249c-0.525,1.227-0.786,2.963-0.786,5.211v1.259c0,2.93,0.411,4.905,1.226,5.928
						c0.32,0.431,0.789,0.801,1.415,1.108c0.623,0.305,1.375,0.456,2.249,0.456s1.618-0.143,2.231-0.439
						c0.612-0.296,1.087-0.659,1.431-1.091c0.339-0.432,0.602-0.999,0.781-1.703C316.113,102.853,316.273,101.434,316.273,99.705
						L316.273,99.705z"/>
					<path fill="#E0393F" d="M342.579,89.062c0,0,0.352,0.349,1.045,1.049c0.701,0.697,1.049,2.397,1.049,5.098
						c0,2.704-0.698,4.752-2.094,6.149c-1.396,1.397-3.366,2.094-5.91,2.094h-4.666v7.767h-4.733V86.967h9.399
						C339.213,86.967,341.183,87.665,342.579,89.062z M339.939,95.209c0-2.676-1.17-4.018-3.509-4.018h-4.428v8.004h4.428
						c1.137,0,2.002-0.306,2.608-0.919C339.637,97.663,339.939,96.64,339.939,95.209z"/>
					<path fill="#E0393F" d="M366.909,111.219h-8.582c-2.727,0-4.638-0.47-5.739-1.413c-1.102-0.941-1.653-2.608-1.653-4.989v-17.85
						h15.975v4.224h-11.238v5.687h7.865l-0.336,4.223h-7.529v3.375c0,0.954,0.217,1.611,0.647,1.975
						c0.428,0.363,1.214,0.546,2.349,0.546h8.242V111.219z"/>
					<path fill="#E0393F" d="M391.531,111.219h-5.483l-4.736-8.992h-3.404v8.992h-4.733V92.178c0-1.817,0.419-3.139,1.257-3.966
						c0.843-0.832,2.25-1.245,4.224-1.245h4.02c2.406,0,4.321,0.734,5.739,2.198c1.42,1.464,2.131,3.32,2.131,5.568
						c0,1.634-0.429,3.049-1.278,4.242c-0.853,1.192-1.902,2.016-3.15,2.469L391.531,111.219z M382.366,98.275
						c0.999,0,1.822-0.348,2.473-1.04c0.646-0.691,0.968-1.553,0.968-2.588c0-1.031-0.31-1.866-0.936-2.504
						c-0.624-0.635-1.459-0.953-2.505-0.953h-2.348c-1.409,0-2.111,0.716-2.111,2.144v4.941H382.366z"/>
					<path fill="#E0393F" d="M416.014,104.066c0,2.295-0.842,4.094-2.52,5.399c-1.679,1.305-3.827,1.957-6.438,1.957
						c-2.066,0-4.067-0.567-5.996-1.702c-0.954-0.59-1.736-1.425-2.35-2.502c-0.611-1.082-0.918-2.312-0.918-3.699l4.29-0.201
						c0,1.225,0.522,2.178,1.565,2.859c1.046,0.684,2.203,1.02,3.477,1.02c2.838,0,4.258-0.996,4.258-2.994
						c0-1.636-0.965-2.6-2.894-2.896l-3.952-0.408c-1.976-0.297-3.544-0.999-4.702-2.111c-1.156-1.111-1.735-2.713-1.735-4.803
						c0-2.089,0.826-3.813,2.485-5.177c1.657-1.364,3.751-2.044,6.281-2.044c2.535,0,4.57,0.643,6.119,1.927
						c1.543,1.28,2.313,2.934,2.313,4.954l-4.223,0.204c-0.388-1.976-1.716-2.961-3.984-2.961c-1.385,0-2.469,0.293-3.254,0.883
						c-0.783,0.592-1.177,1.291-1.177,2.097c0,0.806,0.285,1.44,0.851,1.906c0.571,0.465,1.273,0.756,2.113,0.868l3.884,0.41
						C413.847,97.641,416.014,99.978,416.014,104.066L416.014,104.066z"/>
				</g>
			</g>
		</g>
	</g>
</g>
</svg>
